<svg version="1.1" id="Layer_1" xmlns="http://www.w3.org/2000/svg" xmlns:xlink="http://www.w3.org/1999/xlink" x="0px" y="0px"
	 width="100%" viewBox="0 0 225 225" enable-background="new 0 0 225 225" xml:space="preserve">
<path fill="#FFFEFE" opacity="1.000000" stroke="none" 
	d="
M1.000001,145.000000 
	C1.000000,97.040718 1.000000,49.081440 1.000000,1.061081 
	C75.895607,1.061081 150.791275,1.061081 226.000000,1.061081 
	C226.000000,49.687115 226.000000,98.374901 225.655426,147.357391 
	C224.960144,145.769363 224.851318,143.797226 224.196945,142.026733 
	C223.396240,139.860397 222.138382,137.863007 221.085480,135.414078 
	C220.784637,132.327759 220.476532,129.619904 220.138092,126.505905 
	C217.370010,119.078842 214.632263,112.057945 211.821884,104.697662 
	C209.831802,101.238838 207.914337,98.119400 205.910309,94.692734 
	C204.861404,93.259430 203.899078,92.133362 202.940491,90.663849 
	C200.063751,86.958656 197.183273,83.596916 194.236801,79.939827 
	C190.470245,76.008850 186.769684,72.373230 182.920166,68.454216 
	C178.220596,64.314919 173.669998,60.459015 169.048615,56.307442 
	C167.982819,55.358089 166.987823,54.704407 165.685791,53.850128 
	C158.530411,49.611626 151.705841,50.087990 144.663788,53.823959 
	C144.429474,53.890408 143.990860,54.102722 143.678055,54.103607 
	C142.839600,54.673454 142.313950,55.242420 141.760895,55.790268 
	C141.733490,55.769150 141.668701,55.744869 141.339508,55.825394 
	C136.158066,59.451229 134.559204,64.574219 133.703171,70.218872 
	C132.865021,70.162445 132.386765,70.119095 131.808426,69.808975 
	C131.215134,69.286613 130.721939,69.031013 130.113251,68.465889 
	C129.009094,67.102730 128.020416,66.049095 127.021568,64.754860 
	C127.011391,64.514259 126.944435,64.037300 127.017799,63.694920 
	C127.039299,62.891258 126.987442,62.429981 126.961548,61.503063 
	C127.014740,48.891869 127.159874,36.744530 126.976479,24.602154 
	C126.936562,21.959158 125.720688,19.333923 125.034424,16.364956 
	C123.343765,14.677671 121.665108,13.325940 119.647423,11.918861 
	C118.850525,11.861004 118.392654,11.858493 117.666649,11.850323 
	C117.220177,11.857253 117.041824,11.869843 116.558670,11.722237 
	C114.573921,11.878680 112.322716,11.621542 111.320694,12.619137 
	C108.267601,15.658736 105.999725,19.292412 107.021797,24.474937 
	C106.998917,36.884113 107.019218,48.825420 106.971603,60.766464 
	C106.953323,65.350975 103.520821,69.387489 99.333549,69.454163 
	C98.904922,61.580429 95.346878,55.831272 88.539772,53.176025 
	C81.269081,50.339951 73.583000,49.271046 66.425705,54.913200 
	C65.764030,55.324974 65.390289,55.712776 64.807304,56.201164 
	C64.331352,56.475109 64.127037,56.704151 63.676079,57.095612 
	C61.919979,58.498123 60.472931,59.793900 58.719124,61.213215 
	C55.278496,64.231567 52.144627,67.126381 48.746422,70.155334 
	C48.252186,70.802597 48.022274,71.315712 47.772217,71.800018 
	C47.752068,71.771217 47.682301,71.779930 47.364609,71.835854 
	C44.967579,74.083504 42.888248,76.275230 40.483856,78.603043 
	C37.425251,82.147392 34.691704,85.555664 31.665625,89.127594 
	C28.561657,94.456467 25.750219,99.621681 22.587139,104.856476 
	C19.862061,109.951805 17.488623,114.977562 15.033072,120.379944 
	C14.580053,122.481384 14.209148,124.206207 13.545363,126.089905 
	C13.152534,127.118195 13.052587,127.987625 12.614590,129.030807 
	C11.142556,133.469421 10.008573,137.734299 8.523937,142.041977 
	C5.782191,143.056534 3.391096,144.028275 1.000001,145.000000 
z"/>
<path fill="#FEFEFD" opacity="1.000000" stroke="none" 
	d="
M1.000001,145.444168 
	C3.391096,144.028275 5.782191,143.056534 8.591238,142.296356 
	C9.057276,142.676620 9.105361,142.845322 9.073593,143.343811 
	C8.899428,144.113556 8.805119,144.553513 8.365997,145.092377 
	C6.806500,147.438385 5.591813,149.685471 4.117830,152.412231 
	C5.356845,152.617249 6.552892,152.815170 7.814477,153.476440 
	C7.949930,160.628860 8.019844,167.317932 8.014009,174.419006 
	C7.990717,176.221497 8.043176,177.611984 8.013986,179.460876 
	C7.875237,184.277496 7.818137,188.635712 7.416217,193.084564 
	C7.036078,194.930939 6.607021,196.793503 7.048380,198.419861 
	C7.934592,201.685471 9.295928,204.822144 10.842052,209.054688 
	C12.801908,208.793320 15.962276,208.371841 19.516172,207.987335 
	C30.160416,211.374008 39.179771,207.619476 48.400375,203.113190 
	C49.154846,203.023315 49.582882,202.962906 50.386009,202.900696 
	C59.221943,199.623734 67.682785,196.348587 76.361633,193.040802 
	C76.579636,193.008163 76.999153,192.872833 77.379913,192.949921 
	C85.265900,190.716492 91.993698,187.323120 96.031097,179.739868 
	C96.498100,179.007477 96.836090,178.537888 97.526619,178.055481 
	C104.553612,172.167297 106.652924,164.633011 105.923538,155.647827 
	C105.942795,154.168732 105.892761,153.089752 105.915428,151.584503 
	C105.990601,149.438477 105.993073,147.718750 106.045395,145.629578 
	C106.018250,144.521042 105.941269,143.781967 105.917511,142.614471 
	C105.596535,138.794281 105.222343,135.402496 104.902603,131.614059 
	C104.656639,129.144241 104.356224,127.071068 104.101555,124.566498 
	C103.884537,121.873482 103.621773,119.611862 103.390671,116.981171 
	C103.244377,115.082947 103.066422,113.553795 102.947350,111.582977 
	C102.723122,105.473099 102.440018,99.804886 102.485291,94.040878 
	C106.650116,91.001945 110.486557,88.058800 114.644287,85.060501 
	C115.972160,84.708664 116.978737,84.411987 118.152054,84.403503 
	C122.816360,87.857689 127.313942,91.023682 131.847885,94.613220 
	C131.311676,102.381439 130.739090,109.726120 130.081528,117.495758 
	C129.289383,128.587723 128.582230,139.254730 127.529419,150.176971 
	C125.496468,167.545258 132.987976,179.934219 147.261658,189.199295 
	C153.684525,191.903824 159.858948,194.369507 166.356689,197.013184 
	C171.484665,198.879257 176.253525,200.679901 181.104706,202.221466 
	C185.346588,203.569397 189.681061,204.625931 194.331360,205.923279 
	C201.067596,210.908707 211.790314,210.466873 218.512054,204.963562 
	C221.220291,201.573532 223.610138,198.286758 226.000000,195.000000 
	C226.000000,205.318863 226.000000,215.637741 226.000000,225.978302 
	C151.119446,225.978302 76.238876,225.978302 1.000000,225.978302 
	C1.000000,207.313965 1.000000,188.625641 1.395782,169.377808 
	C1.986016,163.724274 2.193748,158.630569 2.316283,153.534805 
	C2.320314,153.367172 1.458307,153.178741 1.000000,153.000000 
	C1.000000,150.629440 1.000000,148.258896 1.000001,145.444168 
M4.517076,192.411987 
	C4.517076,192.411987 4.582962,192.522614 4.517076,192.411987 
z"/>
<path fill="#F54D4C" opacity="1.000000" stroke="none" 
	d="
M221.078217,135.792557 
	C222.138382,137.863007 223.396240,139.860397 224.196945,142.026733 
	C224.851318,143.797226 224.960144,145.769363 225.655426,147.826050 
	C226.000000,148.444443 226.000000,148.888901 225.711456,149.804199 
	C225.615280,151.183365 225.807632,152.091690 226.000000,153.000000 
	C226.000000,166.020889 226.000000,179.041794 225.734863,192.359894 
	C224.551987,192.651443 223.517578,192.371429 222.742508,192.701096 
	C221.409821,193.267990 220.238846,194.214981 218.947052,194.674637 
	C218.560089,194.059067 218.226074,193.771286 217.892059,193.483521 
	C215.087143,197.775360 210.632660,196.650421 207.391251,195.412872 
	C200.344009,192.722275 193.213409,192.999969 185.969482,192.653320 
	C185.623474,191.207077 185.310425,190.105667 185.435059,189.002960 
	C187.915161,189.000900 189.957581,189.000137 192.390869,188.999054 
	C201.994873,188.072281 205.875793,178.885223 213.535294,175.514221 
	C213.952072,175.330795 213.769852,173.953857 214.010773,173.177261 
	C216.194351,166.138412 217.676697,158.747116 220.902817,152.219330 
	C222.718811,148.544815 223.379623,146.129547 220.961212,142.634613 
	C220.975571,140.112198 221.026886,137.952377 221.078217,135.792557 
z"/>
<path fill="#EB4241" opacity="1.000000" stroke="none" 
	d="
M219.000000,195.002441 
	C220.238846,194.214981 221.409821,193.267990 222.742508,192.701096 
	C223.517578,192.371429 224.551987,192.651443 225.734863,192.828552 
	C226.000000,193.444443 226.000000,193.888901 226.000000,194.666672 
	C223.610138,198.286758 221.220291,201.573532 218.126404,204.941437 
	C213.139069,204.040710 208.876083,202.948608 204.558395,202.153458 
	C203.459824,201.951141 202.187576,202.691925 200.608154,202.998962 
	C198.481812,202.665421 196.742432,202.332291 194.753052,201.998138 
	C194.336380,201.995651 194.169724,201.994186 193.854599,201.662552 
	C191.339569,200.221176 188.965347,199.125916 186.608231,197.994965 
	C183.186768,196.353317 178.065872,199.244965 176.213821,193.903152 
	C176.709579,193.592239 176.899734,193.330124 177.420456,193.005066 
	C179.222900,193.004776 180.609314,193.005432 182.080170,193.390121 
	C182.352463,194.036255 182.517151,194.506668 182.731476,194.530487 
	C191.866409,195.545670 200.684464,197.597488 209.403976,200.706024 
	C215.333755,202.820007 216.970657,201.190094 219.000000,195.002441 
z"/>
<path fill="#FBF9F6" opacity="1.000000" stroke="none" 
	d="
M1.000000,153.466858 
	C1.458307,153.178741 2.320314,153.367172 2.316283,153.534805 
	C2.193748,158.630569 1.986016,163.724274 1.395782,168.909149 
	C1.000000,163.977905 1.000000,158.955811 1.000000,153.466858 
z"/>
<path fill="#FEA8A5" opacity="1.000000" stroke="none" 
	d="
M226.000000,152.625000 
	C225.807632,152.091690 225.615280,151.183365 225.711456,150.137527 
	C226.000000,150.750000 226.000000,151.500000 226.000000,152.625000 
z"/>
<path fill="#FA7C7B" opacity="1.000000" stroke="none" 
	d="
M194.302795,80.235184 
	C197.183273,83.596916 200.063751,86.958656 202.581772,90.737961 
	C202.148621,93.103584 202.077927,95.051643 202.005188,97.416405 
	C202.001678,99.222145 202.000229,100.611176 201.724350,102.226624 
	C199.754608,106.084145 198.036194,109.704704 196.371887,113.349960 
	C195.209763,115.895302 193.421844,118.407494 193.168549,121.054596 
	C192.809799,124.803780 192.694977,128.020859 189.188934,130.615067 
	C187.242706,132.055130 186.118408,134.895859 185.166153,137.318497 
	C183.877136,140.597870 174.511642,151.496368 171.411087,152.649673 
	C170.804932,152.875153 170.117722,152.972733 169.467285,152.975266 
	C162.910782,153.000671 156.354095,153.010635 149.797592,152.989212 
	C146.517197,152.978485 144.946381,151.251556 144.958862,147.639435 
	C143.648453,144.420380 141.864883,141.672455 141.217514,138.678818 
	C140.105026,133.534302 139.701263,128.236542 139.132004,122.814796 
	C139.842667,122.751099 140.421341,122.875702 141.001282,123.414787 
	C141.582687,126.738724 141.925369,129.720306 142.783386,132.545364 
	C146.888382,146.061493 157.654907,149.072037 168.820145,140.425186 
	C173.445053,136.843475 178.887787,134.301315 181.686874,128.791534 
	C185.491058,121.303299 190.538528,114.109604 192.577972,106.155083 
	C194.692001,97.909721 193.851227,88.906784 194.302795,80.235184 
z"/>
<path fill="#FB8483" opacity="1.000000" stroke="none" 
	d="
M194.236801,79.939827 
	C193.851227,88.906784 194.692001,97.909721 192.577972,106.155083 
	C190.538528,114.109604 185.491058,121.303299 181.686874,128.791534 
	C178.887787,134.301315 173.445053,136.843475 168.820145,140.425186 
	C157.654907,149.072037 146.888382,146.061493 142.783386,132.545364 
	C141.925369,129.720306 141.582687,126.738724 141.001465,122.997810 
	C141.002686,120.776474 141.005005,119.386604 141.344940,118.049255 
	C142.787949,119.068161 143.893372,120.034538 144.999329,121.250587 
	C144.999878,121.500259 145.000610,121.999596 145.000122,122.403244 
	C145.337967,128.629471 153.959030,136.562943 158.808960,134.729538 
	C166.858780,131.686478 175.085419,128.360336 179.086807,119.727997 
	C181.910263,113.636848 186.132874,107.945930 185.036179,100.606911 
	C184.943130,99.984322 184.987274,99.112068 185.352600,98.685356 
	C189.293808,94.082176 188.181198,88.522987 187.829956,83.369850 
	C187.572525,79.592804 187.554764,75.059120 183.001358,72.574615 
	C183.024033,71.012711 183.046585,69.875160 183.069122,68.737610 
	C186.769684,72.373230 190.470245,76.008850 194.236801,79.939827 
z"/>
<path fill="#FB918E" opacity="1.000000" stroke="none" 
	d="
M49.010750,70.021194 
	C52.144627,67.126381 55.278496,64.231567 58.751778,61.544685 
	C60.891266,65.965729 63.015617,62.294670 65.044647,62.360722 
	C65.566559,63.363815 66.007843,64.520897 66.529510,64.558350 
	C70.947876,64.875526 72.170105,68.025314 73.008423,71.549164 
	C74.692436,78.627945 75.112633,85.396385 73.440254,92.893661 
	C71.728470,100.567604 70.111015,107.614052 65.323662,114.130707 
	C59.010967,122.723656 48.626545,122.776756 40.771297,119.470467 
	C33.718704,116.502022 32.591095,110.654724 32.864754,103.689621 
	C32.822090,101.928055 32.907009,100.468529 33.143188,98.702103 
	C34.530643,96.263527 35.766838,94.131859 37.282051,92.250732 
	C37.376236,95.754997 36.761757,99.053543 37.095451,102.253197 
	C37.803299,109.040405 41.125820,113.714935 48.408691,113.100937 
	C54.646355,112.575050 65.767151,103.032837 66.785301,95.687637 
	C67.711235,89.007683 67.982437,82.176575 67.773232,75.435974 
	C67.709351,73.377724 65.514435,70.656532 63.556046,69.562309 
	C60.827530,68.037781 57.699905,68.627464 55.669502,71.852325 
	C52.904110,72.151207 50.464600,72.588722 47.965591,72.707458 
	C47.831501,72.185760 47.756901,71.982849 47.682301,71.779930 
	C47.682301,71.779930 47.752068,71.771217 48.063255,71.710083 
	C48.586548,71.106361 48.798649,70.563774 49.010750,70.021194 
z"/>
<path fill="#FA8785" opacity="1.000000" stroke="none" 
	d="
M65.001274,61.995697 
	C63.015617,62.294670 60.891266,65.965729 59.058533,61.421150 
	C60.472931,59.793900 61.919979,58.498123 63.771889,57.265030 
	C64.448799,57.208191 64.720856,57.088669 65.346573,56.973770 
	C66.466354,56.324673 67.232475,55.670952 68.348892,55.012848 
	C69.799263,54.673767 70.899330,54.339073 72.040588,54.325134 
	C72.721291,55.097511 73.360794,55.549137 74.035004,56.348530 
	C79.849724,62.461525 81.782059,69.396637 81.111015,77.475769 
	C80.624725,83.330475 80.753853,89.270744 81.069000,95.148163 
	C81.405098,101.416138 79.967857,107.181717 77.969933,113.055412 
	C75.205719,121.181870 70.248741,126.985062 62.803772,131.195084 
	C56.928211,134.517639 51.552097,133.879944 45.250904,132.303345 
	C37.333874,130.322449 31.140810,127.470917 28.998743,118.569595 
	C29.331106,115.759445 29.663422,113.378883 30.283829,111.212387 
	C31.585140,114.472214 31.759085,118.331398 33.771996,120.408279 
	C39.373928,126.188240 46.268871,129.943100 54.806873,128.939178 
	C55.873745,128.813736 56.958954,128.188507 57.875957,127.561340 
	C61.269363,125.240479 64.625763,122.862312 67.933540,120.420944 
	C69.374992,119.357063 71.439438,118.330452 71.895805,116.872208 
	C74.485268,108.598007 77.437019,100.315559 78.744804,91.802315 
	C79.703522,85.561440 78.439751,78.953186 77.960686,72.524002 
	C77.365509,64.536507 71.314011,59.713257 65.001274,61.995697 
z"/>
<path fill="#F76160" opacity="1.000000" stroke="none" 
	d="
M211.894516,105.037041 
	C214.632263,112.057945 217.370010,119.078842 219.891266,126.640503 
	C218.783173,128.120605 217.891586,129.059952 216.726074,130.195969 
	C210.489944,141.221283 204.345993,151.954758 198.613556,162.903702 
	C192.088821,175.365952 181.133514,179.927887 167.587204,181.000458 
	C164.783752,180.666046 162.392471,180.331802 159.959290,179.677216 
	C159.278442,178.904785 158.639526,178.452698 157.666214,177.855438 
	C152.621445,175.656219 147.300354,174.467300 145.331482,169.001984 
	C146.111252,168.999603 146.556839,168.998276 147.335190,168.997772 
	C148.111603,168.999680 148.555252,169.000748 149.038696,169.357162 
	C154.285095,172.141556 159.341248,176.187485 164.727249,176.688660 
	C179.377808,178.051910 188.893402,169.056808 196.531296,157.820969 
	C198.922165,154.303833 200.758453,150.410858 202.866730,146.700211 
	C207.765945,138.077362 212.819809,129.508133 212.000519,118.610199 
	C210.999176,116.479980 209.997330,114.740173 209.145584,112.652756 
	C210.161957,109.882446 211.028244,107.459740 211.894516,105.037041 
z"/>
<path fill="#FC9895" opacity="1.000000" stroke="none" 
	d="
M165.992813,54.050720 
	C166.987823,54.704407 167.982819,55.358089 169.032593,56.680637 
	C170.391571,59.899975 171.695786,62.450447 173.006256,65.388115 
	C174.422409,71.870232 176.769531,77.415985 176.458527,84.281555 
	C176.011398,94.152054 173.992416,102.672859 168.259460,110.650009 
	C164.409256,116.007362 153.955917,118.740181 150.430267,112.808228 
	C147.899307,108.549889 144.163773,104.630447 145.351471,99.052567 
	C147.993164,102.449806 150.347900,105.752113 152.562698,109.145729 
	C154.274048,111.767921 157.459778,113.429878 159.091415,111.134186 
	C162.331589,106.575310 168.828766,104.545357 169.418091,98.071106 
	C169.569565,96.407227 169.154297,94.691765 168.999695,92.625107 
	C169.000412,91.500443 169.000824,90.750679 169.375412,89.933334 
	C170.499222,88.151756 171.960373,86.396271 171.863327,84.731606 
	C171.586502,79.981949 171.317947,75.051292 169.811020,70.611015 
	C168.607880,67.065872 165.995117,63.730690 163.281052,61.034012 
	C159.808182,57.583385 155.152191,58.209919 152.361877,62.146694 
	C150.609467,64.619102 149.597641,67.603928 148.059418,70.245811 
	C147.257309,71.623421 146.034973,72.756332 145.000900,73.555984 
	C143.934036,67.730583 146.760513,63.881702 149.647675,59.734230 
	C153.360840,54.400162 157.265839,52.798565 163.711533,55.080929 
	C164.279190,55.281933 165.223465,54.419323 165.992813,54.050720 
z"/>
<path fill="#F86F6C" opacity="1.000000" stroke="none" 
	d="
M211.821884,104.697662 
	C211.028244,107.459740 210.161957,109.882446 208.816360,112.834183 
	C207.668091,115.668785 207.379059,118.178993 206.265991,120.245331 
	C200.758987,130.468689 198.389786,141.993881 190.358749,151.362656 
	C184.656555,158.014664 178.581390,163.143692 171.047119,166.856674 
	C168.356430,168.182678 165.110199,168.659088 162.064560,168.931946 
	C154.678284,169.593658 149.468002,164.922287 144.000168,160.666672 
	C143.999619,159.888901 143.999512,159.444443 144.382538,159.005890 
	C146.867859,159.863495 148.948685,160.773651 151.077835,161.551514 
	C153.481491,162.429688 155.883820,163.693756 158.364441,163.913742 
	C169.990753,164.944748 179.069046,159.251663 186.085876,151.043671 
	C190.757355,145.579208 193.431381,138.407166 197.004959,131.615845 
	C198.097046,127.042023 199.089966,122.824303 200.308258,118.672714 
	C200.950134,116.485413 202.257523,114.477905 202.778534,112.274323 
	C203.532562,109.085175 203.864685,105.794037 204.247330,102.531219 
	C204.257645,102.443321 202.781662,102.181122 201.998779,102.000206 
	C202.000229,100.611176 202.001678,99.222145 202.232025,97.281563 
	C203.639587,96.153336 204.818237,95.576660 205.996872,94.999969 
	C207.914337,98.119400 209.831802,101.238838 211.821884,104.697662 
z"/>
<path fill="#FB8F8D" opacity="1.000000" stroke="none" 
	d="
M173.000000,65.000923 
	C171.695786,62.450447 170.391571,59.899975 169.103363,56.976307 
	C173.669998,60.459015 178.220596,64.314919 182.920166,68.454216 
	C183.046585,69.875160 183.024033,71.012711 183.000916,73.009445 
	C183.044647,75.528870 182.753403,77.282967 183.187378,78.834183 
	C186.138290,89.381935 184.361938,99.485573 179.396164,108.803429 
	C176.385986,114.451782 172.424423,119.949051 167.735611,124.257629 
	C161.754074,129.754105 154.301254,131.766586 148.664703,124.271034 
	C147.859833,123.200699 146.242126,122.741585 145.000610,121.999596 
	C145.000610,121.999596 144.999878,121.500259 144.999939,120.821983 
	C145.000198,118.428970 145.000397,116.714241 145.349045,115.034607 
	C147.226898,116.299835 148.772644,117.510277 150.282669,118.763763 
	C154.990814,122.672012 166.084961,121.941772 168.796249,117.233269 
	C172.500549,110.800262 176.720764,104.826782 177.837723,96.876495 
	C179.105240,87.854546 179.528320,78.967255 178.575943,70.023674 
	C178.307632,67.504234 177.546051,63.653355 173.000000,65.000923 
z"/>
<path fill="#FDDB92" opacity="1.000000" stroke="none" 
	d="
M130.228729,68.775414 
	C130.721939,69.031013 131.215134,69.286613 131.570496,70.023682 
	C132.244308,71.331337 133.055969,72.157516 133.896439,73.418015 
	C133.944031,75.881874 133.962799,77.911407 133.693970,80.184555 
	C133.221176,81.933357 133.035965,83.438560 132.551361,84.784943 
	C126.580421,82.282303 120.963562,79.792419 115.219528,77.642250 
	C110.854858,76.008438 107.372696,76.976852 105.832031,82.287811 
	C104.126740,83.352066 102.609749,84.158218 100.982407,84.743217 
	C100.677017,84.241974 100.418846,84.044411 100.073196,83.566292 
	C100.358513,81.822945 100.668144,80.442688 100.986816,78.797714 
	C100.998405,78.356651 101.000946,78.180305 101.260384,77.894043 
	C102.006180,77.516159 102.495064,77.248199 103.346634,76.984993 
	C105.471581,76.325279 107.233856,75.660805 109.378494,74.991974 
	C116.954285,72.378723 119.978836,73.357208 118.098122,63.479534 
	C117.553780,60.620621 118.122658,57.565563 117.957283,54.612968 
	C117.851822,52.730129 117.334793,50.870350 117.002090,48.556065 
	C117.003914,45.741470 117.005943,43.371040 117.383476,40.922119 
	C118.173683,39.600323 118.480896,38.306526 119.034309,37.128387 
	C119.554077,36.021893 120.333954,35.037586 121.003571,34.468189 
	C121.351906,45.611279 121.696068,56.285690 121.783562,67.160416 
	C121.578949,68.068954 121.630997,68.777168 121.683044,69.485390 
	C122.122643,68.655045 122.562241,67.824699 123.365471,66.997841 
	C125.895645,67.592690 128.062195,68.184052 130.228729,68.775414 
z"/>
<path fill="#F68C8A" opacity="1.000000" stroke="none" 
	d="
M165.685791,53.850128 
	C165.223465,54.419323 164.279190,55.281933 163.711533,55.080929 
	C157.265839,52.798565 153.360840,54.400162 149.647675,59.734230 
	C146.760513,63.881702 143.934036,67.730583 144.998871,73.888908 
	C144.996307,75.109512 144.994247,75.553406 144.614792,76.076118 
	C140.727798,82.732384 141.828079,89.768021 142.461090,96.663223 
	C142.963928,102.140373 144.127396,107.556877 144.598267,113.000221 
	C143.134476,112.999687 142.069977,112.999237 141.003784,112.564308 
	C140.668671,101.913422 140.315353,91.697586 140.014786,81.480202 
	C139.931686,78.655617 140.005524,75.826401 140.007355,72.600632 
	C140.009094,71.138802 140.010803,70.075653 140.367813,68.943604 
	C140.815598,66.916397 140.908096,64.958084 141.023529,62.702183 
	C141.364563,61.936039 141.682648,61.467476 142.316772,60.860874 
	C145.566803,59.109695 146.410477,56.816727 144.898117,53.757515 
	C151.705841,50.087990 158.530411,49.611626 165.685791,53.850128 
M148.515762,56.413540 
	C148.515762,56.413540 148.580963,56.523006 148.515762,56.413540 
z"/>
<path fill="#F67473" opacity="1.000000" stroke="none" 
	d="
M100.977768,79.062431 
	C100.668144,80.442688 100.358513,81.822945 99.787109,83.802063 
	C99.999565,85.931709 100.473785,87.462494 100.961929,89.247116 
	C100.963615,89.669983 100.951378,89.839020 100.688065,90.224716 
	C100.112366,91.409012 99.787743,92.376640 99.463112,93.344269 
	C99.145256,93.338203 98.827393,93.332138 98.509529,93.326065 
	C98.241486,91.225945 97.973434,89.125824 97.705383,87.025711 
	C97.519684,87.059639 97.333977,87.093567 97.148277,87.127495 
	C97.095657,87.752998 97.043030,88.378510 96.607101,88.918610 
	C95.844620,88.341553 95.184311,87.879631 95.128693,87.353760 
	C94.370110,80.181091 93.683327,73.000694 93.004295,65.819801 
	C92.620842,61.764629 91.676994,58.118214 86.644714,56.966225 
	C84.528984,56.286568 82.766289,55.642509 80.603775,54.997894 
	C79.137787,54.995777 78.071609,54.994221 77.210785,54.738579 
	C78.268867,54.150364 79.121582,53.816238 79.974297,53.482117 
	C79.904633,53.249996 79.834961,53.017872 79.765297,52.785751 
	C77.176666,53.191959 74.588028,53.598167 71.999397,54.004379 
	C70.899330,54.339073 69.799263,54.673767 68.027397,54.983490 
	C67.141609,54.935425 66.927620,54.912323 66.713631,54.889225 
	C73.583000,49.271046 81.269081,50.339951 88.539772,53.176025 
	C95.346878,55.831272 98.904922,61.580429 99.261482,69.852661 
	C99.568542,73.092613 99.865364,75.532784 100.184601,78.220657 
	C100.378380,78.777344 100.635300,78.975365 100.977768,79.062431 
z"/>
<path fill="#FBE5B8" opacity="1.000000" stroke="none" 
	d="
M100.162186,77.972954 
	C99.865364,75.532784 99.568542,73.092613 99.343781,70.253937 
	C103.520821,69.387489 106.953323,65.350975 106.971603,60.766464 
	C107.019218,48.825420 106.998917,36.884113 107.355988,24.474436 
	C108.471184,24.340363 109.236092,24.674765 110.001717,25.476870 
	C110.002426,35.908955 110.002426,45.873337 110.002426,55.837719 
	C110.336243,55.837811 110.670052,55.837898 111.003868,55.837990 
	C111.003868,51.891273 111.003868,47.944561 111.250717,43.997154 
	C111.497574,43.996464 111.991280,43.993576 111.994698,44.394844 
	C112.002060,45.865833 112.006004,46.935551 112.008118,48.471878 
	C112.004890,50.419254 111.976196,51.900574 112.006645,53.380684 
	C112.172234,61.429642 111.828979,69.249527 104.009087,74.293030 
	C103.359756,74.711823 103.311485,76.062515 102.983955,76.980232 
	C102.495064,77.248199 102.006180,77.516159 101.049980,77.887894 
	C100.582672,77.991676 100.162193,77.972954 100.162186,77.972954 
z"/>
<path fill="#FAD076" opacity="1.000000" stroke="none" 
	d="
M122.040222,66.960106 
	C121.696068,56.285690 121.351906,45.611279 121.007401,34.002834 
	C119.963783,26.071289 123.362206,18.858873 119.986443,11.974209 
	C121.665108,13.325940 123.343765,14.677671 125.003548,16.811214 
	C124.697945,30.652424 124.303474,43.711411 124.254112,56.771706 
	C124.247581,58.500637 125.998558,60.236206 126.935585,61.968700 
	C126.987442,62.429981 127.039299,62.891258 126.856628,63.782917 
	C126.758644,64.474014 126.895195,64.734734 127.031754,64.995461 
	C128.020416,66.049095 129.009094,67.102730 130.113251,68.465889 
	C128.062195,68.184052 125.895645,67.592690 123.125015,66.990234 
	C122.520935,66.979134 122.040222,66.960106 122.040222,66.960106 
z"/>
<path fill="#EC5656" opacity="1.000000" stroke="none" 
	d="
M9.153446,143.014038 
	C9.105361,142.845322 9.057276,142.676620 8.941890,142.253540 
	C10.008573,137.734299 11.142556,133.469421 12.632061,129.451904 
	C14.326571,138.799438 15.665562,147.899658 17.003160,157.437256 
	C17.003250,159.915283 17.004732,161.955933 17.004566,164.395630 
	C17.668488,167.196243 18.334053,169.597824 18.665939,171.999695 
	C17.887308,172.000610 17.442358,172.001221 16.853893,171.703674 
	C15.474629,170.268097 14.238879,169.130692 13.003457,167.532532 
	C12.306057,159.545502 11.641803,152.015640 10.841470,144.500290 
	C10.782993,143.951187 9.739163,143.507004 9.153446,143.014038 
z"/>
<path fill="#F2807E" opacity="1.000000" stroke="none" 
	d="
M29.995735,110.998329 
	C29.663422,113.378883 29.331106,115.759445 28.665607,118.569656 
	C27.888205,118.999634 27.443987,118.999969 26.666504,119.000000 
	C25.888874,118.999397 25.444513,118.999084 25.000023,118.548676 
	C24.993555,115.393913 24.987221,112.689262 24.946850,109.632332 
	C24.254803,107.782333 23.596792,106.284622 22.938782,104.786903 
	C25.750219,99.621681 28.561657,94.456467 31.952499,89.383499 
	C32.302013,91.770828 31.945152,94.063789 31.906935,96.362045 
	C31.892368,97.238106 32.608700,98.126328 32.991928,99.009003 
	C32.907009,100.468529 32.822090,101.928055 32.486488,103.740753 
	C31.489115,106.395401 30.742426,108.696861 29.995735,110.998329 
z"/>
<path fill="#EC7978" opacity="1.000000" stroke="none" 
	d="
M142.000732,60.998909 
	C141.682648,61.467476 141.364563,61.936039 140.739380,62.963585 
	C140.292374,65.352547 140.152435,67.182518 140.012512,69.012497 
	C140.010803,70.075653 140.009094,71.138802 139.726471,72.831894 
	C136.103760,78.245453 137.115219,83.716522 136.582626,88.991417 
	C131.823776,86.842232 135.013367,82.879166 133.981567,79.940948 
	C133.962799,77.911407 133.944031,75.881874 133.951660,73.076004 
	C134.006409,71.610443 134.034744,70.921196 134.063065,70.231956 
	C134.559204,64.574219 136.158066,59.451229 141.417786,56.148182 
	C141.883759,57.926598 141.942245,59.462753 142.000732,60.998909 
z"/>
<path fill="#FBBE3E" opacity="1.000000" stroke="none" 
	d="
M126.961548,61.503063 
	C125.998558,60.236206 124.247581,58.500637 124.254112,56.771706 
	C124.303474,43.711411 124.697945,30.652424 125.015549,17.146767 
	C125.720688,19.333923 126.936562,21.959158 126.976479,24.602154 
	C127.159874,36.744530 127.014740,48.891869 126.961548,61.503063 
z"/>
<path fill="#FBE9C1" opacity="1.000000" stroke="none" 
	d="
M111.991272,43.993576 
	C111.991280,43.993576 111.497574,43.996464 111.249702,43.529198 
	C110.668221,37.044346 110.334610,31.026756 110.001007,25.009167 
	C109.236092,24.674765 108.471184,24.340363 107.372078,24.006464 
	C105.999725,19.292412 108.267601,15.658736 111.320694,12.619137 
	C112.322716,11.621542 114.573921,11.878680 116.693710,11.959770 
	C117.412781,12.577234 117.692017,12.796967 117.975693,13.263876 
	C117.980125,13.511055 117.991913,14.005350 117.983513,14.379759 
	C116.307617,17.432484 113.579918,19.963293 113.182686,22.818342 
	C112.211746,29.796921 112.318390,36.925423 111.991272,43.993576 
z"/>
<path fill="#F06260" opacity="1.000000" stroke="none" 
	d="
M17.004553,156.999863 
	C15.665562,147.899658 14.326571,138.799438 12.970110,129.278137 
	C13.052587,127.987625 13.152534,127.118195 13.863685,126.126015 
	C14.987529,126.336189 15.500172,126.669113 16.031395,127.299576 
	C16.368021,128.064789 16.686064,128.532471 17.002691,129.431335 
	C14.911804,136.725815 18.364634,142.720535 20.001451,149.416443 
	C20.668068,153.555664 21.333767,157.278442 21.660843,160.951752 
	C19.882999,159.601486 18.443777,158.300674 17.004553,156.999863 
z"/>
<path fill="#E9706A" opacity="1.000000" stroke="none" 
	d="
M17.004108,129.000153 
	C16.686064,128.532471 16.368021,128.064789 16.310673,127.039322 
	C16.085976,124.322128 15.600580,122.162727 15.115185,120.003326 
	C17.488623,114.977562 19.862061,109.951805 22.587139,104.856476 
	C23.596792,106.284622 24.254803,107.782333 24.569799,109.645432 
	C23.196283,111.459251 21.424505,112.835464 21.274996,114.369759 
	C20.835627,118.878601 21.040464,123.450218 20.643515,128.000214 
	C19.197351,128.335495 18.100729,128.667816 17.004108,129.000153 
z"/>
<path fill="#FCDD9A" opacity="1.000000" stroke="none" 
	d="
M117.991913,14.005350 
	C117.991913,14.005350 117.980125,13.511055 117.977310,12.973291 
	C117.961258,12.242346 117.948021,12.049164 117.934776,11.855982 
	C118.392654,11.858493 118.850525,11.861004 119.647423,11.918862 
	C123.362206,18.858873 119.963783,26.071289 121.003220,33.534161 
	C120.333954,35.037586 119.554077,36.021893 119.034309,37.128387 
	C118.480896,38.306526 118.173683,39.600323 117.378754,40.921780 
	C116.998512,40.999935 116.989624,40.999512 116.992355,40.555374 
	C116.995750,37.740772 116.996414,35.370300 117.223495,32.855042 
	C117.300552,32.140133 117.151192,31.570024 117.001694,30.571733 
	C117.002853,28.430367 117.004143,26.717180 117.311127,24.845474 
	C118.075043,23.456301 118.533257,22.225643 118.993202,20.576797 
	C118.660599,18.107523 118.326248,16.056437 117.991913,14.005350 
z"/>
<path fill="#F28E8D" opacity="1.000000" stroke="none" 
	d="
M33.143192,98.702103 
	C32.608700,98.126328 31.892368,97.238106 31.906935,96.362045 
	C31.945152,94.063789 32.302013,91.770828 32.245029,89.219849 
	C34.691704,85.555664 37.425251,82.147392 40.524345,78.964539 
	C40.926567,80.460373 40.963245,81.730797 40.891148,83.259239 
	C40.524769,84.013016 40.267170,84.508766 39.719307,85.208122 
	C38.620373,87.607887 37.811703,89.804039 37.003029,92.000198 
	C35.766838,94.131859 34.530643,96.263527 33.143192,98.702103 
z"/>
<path fill="#F55958" opacity="1.000000" stroke="none" 
	d="
M217.000000,129.999298 
	C217.891586,129.059952 218.783173,128.120605 219.921600,127.046661 
	C220.476532,129.619904 220.784637,132.327759 221.085480,135.414078 
	C221.026886,137.952377 220.975571,140.112198 220.717743,142.789001 
	C220.007706,143.870041 219.504166,144.434113 218.984802,144.745682 
	C218.312637,144.661911 217.656326,144.830658 217.000534,144.611328 
	C217.000717,142.148636 217.000351,140.074005 217.000000,137.595200 
	C217.000015,134.793777 217.000000,132.396530 217.000000,129.999298 
z"/>
<path fill="#F49B97" opacity="1.000000" stroke="none" 
	d="
M40.999924,83.001221 
	C40.963245,81.730797 40.926567,80.460373 40.849403,78.828453 
	C42.888248,76.275230 44.967579,74.083504 47.364609,71.835854 
	C47.756901,71.982849 47.831501,72.185760 48.086567,72.999893 
	C48.511513,74.408623 48.755989,75.206123 48.683701,76.143585 
	C47.244728,77.855896 46.122517,79.428253 44.668243,81.029266 
	C43.224098,81.705681 42.112011,82.353455 40.999924,83.001221 
z"/>
<path fill="#F2807E" opacity="1.000000" stroke="none" 
	d="
M142.316772,60.860870 
	C141.942245,59.462753 141.883759,57.926598 141.746979,56.067657 
	C141.668701,55.744869 141.733490,55.769150 142.095673,55.823387 
	C142.968842,55.285995 143.479858,54.694363 143.990875,54.102726 
	C143.990860,54.102722 144.429474,53.890408 144.663788,53.823959 
	C146.410477,56.816727 145.566803,59.109695 142.316772,60.860870 
z"/>
<path fill="#FA7572" opacity="1.000000" stroke="none" 
	d="
M205.910309,94.692734 
	C204.818237,95.576660 203.639587,96.153336 202.234085,96.864853 
	C202.077927,95.051643 202.148621,93.103584 202.578033,91.081413 
	C203.899078,92.133362 204.861404,93.259430 205.910309,94.692734 
z"/>
<path fill="#F26969" opacity="1.000000" stroke="none" 
	d="
M15.033072,120.379944 
	C15.600580,122.162727 16.085976,124.322128 16.292091,126.741783 
	C15.500172,126.669113 14.987529,126.336189 14.156566,125.967148 
	C14.209148,124.206207 14.580053,122.481384 15.033072,120.379944 
z"/>
<path fill="#FAD076" opacity="1.000000" stroke="none" 
	d="
M133.703171,70.218872 
	C134.034744,70.921196 134.006409,71.610443 133.922852,72.641693 
	C133.055969,72.157516 132.244308,71.331337 131.670578,70.290451 
	C132.386765,70.119095 132.865021,70.162445 133.703171,70.218872 
z"/>
<path fill="#FA7E7C" opacity="1.000000" stroke="none" 
	d="
M66.425705,54.913200 
	C66.927620,54.912323 67.141609,54.935425 67.677094,54.987877 
	C67.232475,55.670952 66.466354,56.324673 65.346230,56.756672 
	C64.992233,56.534946 65.016541,56.100578 65.016541,56.100578 
	C65.390289,55.712776 65.764030,55.324974 66.425705,54.913200 
z"/>
<path fill="#EC7978" opacity="1.000000" stroke="none" 
	d="
M143.678070,54.103607 
	C143.479858,54.694363 142.968842,55.285995 142.123077,55.844505 
	C142.313950,55.242420 142.839600,54.673454 143.678070,54.103607 
z"/>
<path fill="#F67473" opacity="1.000000" stroke="none" 
	d="
M64.807304,56.201164 
	C65.016541,56.100578 64.992233,56.534946 64.992569,56.752045 
	C64.720856,57.088669 64.448799,57.208191 64.080940,57.158291 
	C64.127037,56.704151 64.331352,56.475109 64.807304,56.201164 
z"/>
<path fill="#F49B97" opacity="1.000000" stroke="none" 
	d="
M48.746422,70.155334 
	C48.798649,70.563774 48.586548,71.106361 48.083405,71.738884 
	C48.022274,71.315712 48.252186,70.802597 48.746422,70.155334 
z"/>
<path fill="#FCE4AD" opacity="1.000000" stroke="none" 
	d="
M117.666649,11.850323 
	C117.948021,12.049164 117.961258,12.242346 117.972870,12.726112 
	C117.692017,12.796967 117.412781,12.577234 116.998505,12.119968 
	C117.041824,11.869843 117.220177,11.857253 117.666649,11.850323 
z"/>
<path fill="#FBBE3E" opacity="1.000000" stroke="none" 
	d="
M127.021576,64.754860 
	C126.895195,64.734734 126.758644,64.474014 126.783264,64.125298 
	C126.944435,64.037300 127.011391,64.514259 127.021576,64.754860 
z"/>
<path fill="#F76160" opacity="1.000000" stroke="none" 
	d="
M104.848145,132.010712 
	C105.222343,135.402496 105.596535,138.794281 105.689278,142.809692 
	C105.603729,144.288544 105.799637,145.143784 105.995544,145.999023 
	C105.993073,147.718750 105.990601,149.438477 105.580055,151.645691 
	C103.970955,154.035889 102.635956,155.868729 101.599144,157.857071 
	C99.890694,161.133408 99.077354,165.185104 96.644844,167.716690 
	C89.708862,174.935165 80.780594,179.189697 71.361671,182.314331 
	C67.982826,183.435257 64.458588,184.117935 60.554688,185.000214 
	C53.738914,185.000092 47.369160,185.000351 40.599583,185.000427 
	C39.133553,184.999741 38.067348,184.999252 36.946163,184.649902 
	C35.260742,183.534027 33.630295,182.767014 31.750111,181.999756 
	C31.500374,181.999512 31.000898,181.998901 30.959196,181.678314 
	C30.278475,180.905090 29.639456,180.452454 29.000217,179.999908 
	C29.000000,180.000000 29.000305,179.999390 28.963478,179.644775 
	C26.618862,173.859299 24.311071,168.428436 22.369755,163.004486 
	C26.040211,165.723007 29.131559,168.765808 32.704018,171.059189 
	C36.822552,173.703156 41.135876,176.814789 45.764915,177.757324 
	C64.578316,181.587967 79.976540,175.017395 91.964508,160.393478 
	C96.772346,154.528473 101.280472,148.436417 101.330658,140.079590 
	C101.346863,137.383011 103.611862,134.699951 104.848145,132.010712 
z"/>
<path fill="#F86765" opacity="1.000000" stroke="none" 
	d="
M104.902596,131.614059 
	C103.611862,134.699951 101.346863,137.383011 101.330658,140.079590 
	C101.280472,148.436417 96.772346,154.528473 91.964508,160.393478 
	C79.976540,175.017395 64.578316,181.587967 45.764915,177.757324 
	C41.135876,176.814789 36.822552,173.703156 32.704018,171.059189 
	C29.131559,168.765808 26.040211,165.723007 22.368931,162.671783 
	C22.000910,161.888519 22.000187,161.444870 21.999466,161.001221 
	C21.333767,157.278442 20.668068,153.555664 20.260414,149.523438 
	C21.012280,149.476196 21.506100,149.738403 22.005753,150.381409 
	C23.457386,153.457794 24.581995,156.397537 26.410126,158.802505 
	C31.582401,165.606873 39.101307,167.749405 47.003296,170.422211 
	C57.238041,173.884064 65.901115,170.472626 74.733490,167.650726 
	C79.466019,166.138702 83.313126,161.825821 87.511459,158.711731 
	C87.995163,158.352936 88.133522,157.552887 88.491127,156.995361 
	C89.719612,155.080139 90.914543,153.139297 92.230515,151.285049 
	C95.925568,146.078644 98.847694,140.586105 98.998741,133.666260 
	C98.998825,132.888977 98.998650,132.444809 99.192108,131.724121 
	C99.767265,130.657455 100.655411,129.685913 100.448006,129.106628 
	C99.114365,125.381737 101.083527,124.804497 104.055801,124.997894 
	C104.356224,127.071068 104.656639,129.144241 104.902596,131.614059 
z"/>
<path fill="#F55958" opacity="1.000000" stroke="none" 
	d="
M61.000702,185.000610 
	C64.458588,184.117935 67.982826,183.435257 71.361671,182.314331 
	C80.780594,179.189697 89.708862,174.935165 96.644844,167.716690 
	C99.077354,165.185104 99.890694,161.133408 101.599144,157.857071 
	C102.635956,155.868729 103.970955,154.035889 105.507362,152.071991 
	C105.892761,153.089752 105.942795,154.168732 105.669205,155.925659 
	C103.910225,161.634552 105.333702,168.343811 97.878815,169.667923 
	C96.897606,172.514389 95.952774,175.255371 94.679382,177.972366 
	C93.171753,178.187485 91.908249,178.231598 90.828163,178.699295 
	C86.070534,180.759445 81.493340,183.314636 76.609474,184.984970 
	C70.564911,187.052307 64.249306,188.314911 58.124756,190.169403 
	C56.603561,190.630020 55.367153,192.031174 53.667183,193.000824 
	C52.890980,193.002533 52.447430,193.003403 51.542252,193.002167 
	C32.576866,192.992599 24.062895,187.419235 18.999619,171.999390 
	C18.334053,169.597824 17.668488,167.196243 17.352892,164.450867 
	C19.892889,168.260223 21.884218,172.538147 24.373285,176.503616 
	C25.333885,178.034027 27.424519,178.855133 29.000305,179.999390 
	C29.000305,179.999390 29.000000,180.000000 29.041550,180.320679 
	C29.722366,181.093872 30.361633,181.546387 31.000900,181.998901 
	C31.000898,181.998901 31.500374,181.999512 31.804720,182.348785 
	C33.739758,183.464951 35.370449,184.231873 37.001141,184.998779 
	C38.067348,184.999252 39.133553,184.999741 40.684467,185.386658 
	C45.384674,186.371597 49.596859,187.376099 53.816978,187.410599 
	C56.204826,187.430130 58.605698,185.856613 61.000702,185.000610 
z"/>
<path fill="#E63D3D" opacity="1.000000" stroke="none" 
	d="
M7.761036,192.993927 
	C7.818137,188.635712 7.875237,184.277496 8.360866,179.504791 
	C10.526326,181.060196 12.263258,183.030090 14.000095,185.000000 
	C14.000000,185.000000 14.000191,185.000000 13.999837,185.416168 
	C13.063647,194.504272 22.874405,202.275574 30.320009,202.552017 
	C31.193604,202.584457 32.106979,201.545380 33.400780,201.002869 
	C34.863293,201.004898 35.926941,201.007111 36.815742,201.250748 
	C36.003292,201.840393 35.365688,202.188614 34.728081,202.536850 
	C34.801403,202.914841 34.874729,203.292831 34.948051,203.670807 
	C36.970131,203.439667 38.992210,203.208511 41.386719,202.981827 
	C42.504047,202.988113 43.248951,202.989929 44.215034,202.887421 
	C44.712238,202.586029 44.900570,202.325562 45.296219,201.878784 
	C46.418793,202.218155 47.246365,202.680420 48.073936,203.142670 
	C39.179771,207.619476 30.160416,211.374008 19.294718,207.728516 
	C12.608716,204.458466 9.028923,199.600342 7.761036,192.993927 
z"/>
<path fill="#ED4A49" opacity="1.000000" stroke="none" 
	d="
M43.993851,202.991760 
	C43.248951,202.989929 42.504047,202.988113 41.315521,202.626358 
	C39.578125,201.847397 38.284355,201.428360 36.990585,201.009338 
	C35.926941,201.007111 34.863293,201.004898 33.046928,200.964279 
	C29.991716,199.675858 27.680195,198.442139 25.388704,197.172272 
	C21.199429,194.850723 16.880318,192.694946 16.816961,186.825882 
	C16.810284,186.207184 14.982881,185.608154 14.000188,185.000000 
	C14.000191,185.000000 14.000000,185.000000 13.999496,184.592255 
	C13.666479,181.789825 13.333966,179.395142 13.283243,176.739792 
	C13.377731,173.650497 13.190429,170.821899 13.003128,167.993286 
	C14.238879,169.130692 15.474629,170.268097 16.853937,172.145691 
	C16.999249,174.208618 16.938826,175.534866 17.013258,176.853485 
	C17.382931,183.402435 21.043699,189.019424 25.704554,192.226379 
	C30.174849,195.302200 36.748142,196.215805 42.416454,196.276154 
	C45.218384,196.305984 50.506138,198.679657 52.003883,193.004272 
	C52.447430,193.003403 52.890980,193.002533 54.017906,193.004364 
	C55.801510,193.339676 56.901737,193.672287 58.108681,194.263062 
	C58.477543,195.013550 58.739689,195.505859 59.000916,195.999084 
	C59.000000,196.000000 58.998928,196.001785 58.630325,196.041351 
	C54.416676,197.030624 50.848652,198.315399 50.010918,202.902496 
	C49.582882,202.962906 49.154846,203.023315 48.400372,203.113190 
	C47.246365,202.680420 46.418793,202.218155 45.076622,201.985168 
	C44.288326,202.411926 44.098934,202.671021 43.993851,202.991760 
z"/>
<path fill="#E64D4C" opacity="1.000000" stroke="none" 
	d="
M147.013214,188.960434 
	C132.987976,179.934219 125.496468,167.545258 127.811462,150.378662 
	C128.629913,151.212418 128.820663,152.099731 129.006989,153.405518 
	C128.540390,161.638687 134.229202,166.578918 138.370697,171.797668 
	C141.298080,175.486496 143.530945,180.876419 149.630432,181.520905 
	C150.862213,181.651062 151.882294,183.784866 153.102448,185.268707 
	C152.664368,186.127731 152.229202,186.931931 151.561615,187.253265 
	C150.108307,187.952866 148.536560,188.406357 147.013214,188.960434 
z"/>
<path fill="#EB605F" opacity="1.000000" stroke="none" 
	d="
M129.011414,152.987030 
	C128.820663,152.099731 128.629913,151.212418 128.157120,150.123428 
	C128.582230,139.254730 129.289383,128.587723 130.311356,117.712395 
	C133.582428,121.035797 132.663376,125.032570 131.961182,129.374298 
	C132.469254,134.229477 132.496048,138.854385 133.690933,143.154724 
	C135.743591,150.542130 138.525085,157.727036 140.655350,164.966187 
	C139.207611,164.622818 138.105179,164.310196 136.945404,163.647797 
	C135.455383,161.276489 134.069122,159.219849 132.574768,157.244995 
	C131.459351,155.770920 130.204285,154.402496 129.011414,152.987030 
z"/>
<path fill="#E9706A" opacity="1.000000" stroke="none" 
	d="
M132.005493,128.998001 
	C132.663376,125.032570 133.582428,121.035797 130.396347,117.287437 
	C130.739090,109.726120 131.311676,102.381439 131.912476,94.218246 
	C131.974487,92.601883 132.008255,91.804031 132.101257,90.628036 
	C132.390579,88.481171 132.620667,86.712471 132.850754,84.943764 
	C133.035965,83.438560 133.221176,81.933357 133.693970,80.184555 
	C135.013367,82.879166 131.823776,86.842232 136.477264,89.209579 
	C136.582520,89.716217 136.323807,89.902763 135.707886,90.149612 
	C135.280548,91.531067 135.148972,92.767052 135.013947,94.430756 
	C135.011642,96.569847 135.012802,98.281235 135.008484,100.413658 
	C135.333420,104.890007 135.663849,108.945312 135.994400,113.430984 
	C136.329468,116.573029 136.664429,119.284698 136.997772,122.452415 
	C135.933533,126.194458 139.238998,130.342407 135.002808,132.602463 
	C135.002335,131.136108 135.003311,130.069733 135.142975,128.948395 
	C135.186630,128.927521 135.091614,128.961624 134.622620,128.996124 
	C133.500946,128.997009 132.753220,128.997498 132.005493,128.998001 
M134.516418,126.410240 
	C134.516418,126.410240 134.583435,126.523445 134.516418,126.410240 
z"/>
<path fill="#E54848" opacity="1.000000" stroke="none" 
	d="
M147.261658,189.199295 
	C148.536560,188.406357 150.108307,187.952866 151.561615,187.253265 
	C152.229202,186.931931 152.664368,186.127731 153.472519,185.274445 
	C155.493088,185.007645 157.246063,185.008926 159.331299,185.008530 
	C160.106537,185.007019 160.549545,185.007172 161.002716,185.383453 
	C163.008438,186.841049 165.003983,187.922531 167.179459,189.264603 
	C168.572525,190.683441 169.785660,191.841721 170.999054,193.249847 
	C170.999344,193.499695 171.003052,193.999390 170.697479,194.130463 
	C168.939041,195.119415 167.486191,195.977295 166.033356,196.835190 
	C159.858948,194.369507 153.684525,191.903824 147.261658,189.199295 
z"/>
<path fill="#F25352" opacity="1.000000" stroke="none" 
	d="
M58.001965,194.004883 
	C56.901737,193.672287 55.801510,193.339676 54.350563,193.003540 
	C55.367153,192.031174 56.603561,190.630020 58.124756,190.169403 
	C64.249306,188.314911 70.564911,187.052307 76.609474,184.984970 
	C81.493340,183.314636 86.070534,180.759445 90.828163,178.699295 
	C91.908249,178.231598 93.171753,178.187485 95.040512,177.976807 
	C96.211487,178.026245 96.692780,178.047256 97.174072,178.068283 
	C96.836090,178.537888 96.498100,179.007477 95.668198,179.741623 
	C90.942444,182.186264 86.726639,184.402451 82.467804,186.532593 
	C80.014137,187.759857 77.490898,188.848022 74.688980,189.883194 
	C70.585930,191.177780 66.792885,192.587967 62.999924,193.999084 
	C63.000000,194.000000 62.998322,194.000000 62.749615,193.999146 
	C62.500908,193.998291 62.003494,193.997818 61.819252,193.748535 
	C60.757736,193.666367 59.880463,193.833481 58.752884,194.001221 
	C58.335705,194.002853 58.168835,194.003860 58.001965,194.004883 
z"/>
<path fill="#E44141" opacity="1.000000" stroke="none" 
	d="
M166.356689,197.013184 
	C167.486191,195.977295 168.939041,195.119415 171.113373,194.129669 
	C173.221130,194.003174 174.607407,194.008560 175.993668,194.013947 
	C178.065872,199.244965 183.186768,196.353317 186.608231,197.994965 
	C188.965347,199.125916 191.339569,200.221176 193.604370,201.845886 
	C193.659927,203.509979 193.817276,204.660599 193.974640,205.811203 
	C189.681061,204.625931 185.346588,203.569397 181.104706,202.221466 
	C176.253525,200.679901 171.484665,198.879257 166.356689,197.013184 
z"/>
<path fill="#E84A4A" opacity="1.000000" stroke="none" 
	d="
M13.003456,167.532532 
	C13.190429,170.821899 13.377731,173.650497 12.980182,176.585999 
	C10.960138,175.797592 9.524946,174.902298 8.089757,174.006989 
	C8.019844,167.317932 7.949930,160.628860 7.905516,153.074982 
	C8.190948,149.804611 8.450879,147.399033 8.710810,144.993469 
	C8.805119,144.553513 8.899428,144.113556 9.073591,143.343811 
	C9.739163,143.507004 10.782993,143.951187 10.841470,144.500290 
	C11.641803,152.015640 12.306057,159.545502 13.003456,167.532532 
z"/>
<path fill="#E63D3D" opacity="1.000000" stroke="none" 
	d="
M194.331360,205.923279 
	C193.817276,204.660599 193.659927,203.509979 193.752808,202.176041 
	C194.169724,201.994186 194.336380,201.995651 194.756424,202.336731 
	C196.845764,205.732437 198.945877,203.894806 200.995117,202.999390 
	C202.187576,202.691925 203.459824,201.951141 204.558395,202.153458 
	C208.876083,202.948608 213.139069,204.040710 217.808014,205.044678 
	C211.790314,210.466873 201.067596,210.908707 194.331360,205.923279 
z"/>
<path fill="#E84A4A" opacity="1.000000" stroke="none" 
	d="
M62.999847,193.998169 
	C66.792885,192.587967 70.585930,191.177780 74.689484,189.883789 
	C75.000000,190.000000 75.000305,190.000610 75.003479,190.353226 
	C75.385651,191.495041 75.764641,192.284225 76.143631,193.073425 
	C67.682785,196.348587 59.221943,199.623734 50.386009,202.900696 
	C50.848652,198.315399 54.416676,197.030624 58.799393,196.278229 
	C59.928875,196.571014 60.520687,196.666473 61.112503,196.761932 
	C61.135975,196.553650 61.159443,196.345367 61.182911,196.137070 
	C60.455883,196.090775 59.728859,196.044479 59.001831,195.998169 
	C58.739689,195.505859 58.477543,195.013550 58.108681,194.263062 
	C58.168835,194.003860 58.335705,194.002853 59.127815,194.001007 
	C60.503204,193.999405 61.253349,193.998611 62.003494,193.997818 
	C62.003494,193.997818 62.500908,193.998291 62.784817,194.283661 
	C63.374641,194.891510 63.680557,195.213989 63.986465,195.536469 
	C64.168266,195.326294 64.350067,195.116135 64.531868,194.905960 
	C64.021194,194.603363 63.510521,194.300766 62.999847,193.998169 
M72.185158,193.261795 
	C72.027435,193.376358 71.869713,193.490921 71.711990,193.605484 
	C71.931396,193.582306 72.150810,193.559128 72.185158,193.261795 
z"/>
<path fill="#F86C69" opacity="1.000000" stroke="none" 
	d="
M96.990417,89.004021 
	C97.043030,88.378510 97.095657,87.752998 97.148277,87.127495 
	C97.333977,87.093567 97.519684,87.059639 97.705383,87.025711 
	C97.973434,89.125824 98.241486,91.225945 98.509529,93.326065 
	C98.827393,93.332138 99.145256,93.338203 99.463112,93.344269 
	C99.787743,92.376640 100.112366,91.409012 100.756920,90.209274 
	C101.076851,89.977173 101.215645,89.951622 101.153534,90.330658 
	C101.446587,91.852028 101.801750,92.994347 102.156914,94.136673 
	C102.440018,99.804886 102.723122,105.473099 102.704384,111.692123 
	C101.935059,112.495323 101.467583,112.747696 100.750038,113.000015 
	C100.333275,113.000015 100.166588,113.000076 99.616692,112.990891 
	C98.721512,111.808571 97.819931,110.650818 97.773087,109.459457 
	C97.649437,106.314339 97.896500,103.154648 97.997009,99.574203 
	C97.662170,95.766449 97.326294,92.385231 96.990417,89.004021 
z"/>
<path fill="#E84A4A" opacity="1.000000" stroke="none" 
	d="
M74.999489,189.999390 
	C77.490898,188.848022 80.014137,187.759857 82.467804,186.532593 
	C86.726639,184.402451 90.942444,182.186264 95.539185,180.004395 
	C91.993698,187.323120 85.265900,190.716492 77.374420,192.606079 
	C76.325546,191.456985 75.662926,190.728790 75.000305,190.000610 
	C75.000305,190.000610 75.000000,190.000000 74.999489,189.999390 
z"/>
<path fill="#EB5352" opacity="1.000000" stroke="none" 
	d="
M97.526619,178.055481 
	C96.692780,178.047256 96.211487,178.026245 95.369064,178.000778 
	C95.952774,175.255371 96.897606,172.514389 97.878815,169.667923 
	C105.333702,168.343811 103.910225,161.634552 105.599922,156.325775 
	C106.652924,164.633011 104.553612,172.167297 97.526619,178.055481 
z"/>
<path fill="#FBF9F6" opacity="1.000000" stroke="none" 
	d="
M7.416217,193.084564 
	C9.028923,199.600342 12.608716,204.458466 18.901188,207.691544 
	C15.962276,208.371841 12.801908,208.793320 10.842052,209.054688 
	C9.295928,204.822144 7.934592,201.685471 7.048380,198.419861 
	C6.607021,196.793503 7.036078,194.930939 7.416217,193.084564 
z"/>
<path fill="#FAC55D" opacity="1.000000" stroke="none" 
	d="
M101.007996,89.992615 
	C100.951378,89.839020 100.963615,89.669983 100.986130,88.844864 
	C101.028526,87.113968 101.060646,86.039162 101.092766,84.964363 
	C102.609749,84.158218 104.126740,83.352066 106.228813,82.276810 
	C110.547157,81.778938 114.276596,78.680298 118.012924,82.346336 
	C118.002632,83.171700 117.993980,83.643501 117.985321,84.115311 
	C116.978737,84.411987 115.972160,84.708664 114.268692,84.913124 
	C111.220825,85.206764 108.716743,85.215401 106.563828,86.089226 
	C104.584602,86.892548 102.983391,88.627243 101.215652,89.951630 
	C101.215645,89.951622 101.076851,89.977173 101.007996,89.992615 
z"/>
<path fill="#FAD076" opacity="1.000000" stroke="none" 
	d="
M118.152054,84.403503 
	C117.993980,83.643501 118.002632,83.171700 118.381470,82.356064 
	C123.181770,85.010223 127.611893,88.008202 132.042007,91.006187 
	C132.008255,91.804031 131.974487,92.601883 131.876129,93.794701 
	C127.313942,91.023682 122.816360,87.857689 118.152054,84.403503 
z"/>
<path fill="#FBBE3E" opacity="1.000000" stroke="none" 
	d="
M101.153534,90.330666 
	C102.983391,88.627243 104.584602,86.892548 106.563828,86.089226 
	C108.716743,85.215401 111.220825,85.206764 113.947403,84.968277 
	C110.486557,88.058800 106.650116,91.001945 102.485291,94.040878 
	C101.801750,92.994347 101.446587,91.852028 101.153534,90.330666 
z"/>
<path fill="#F86C69" opacity="1.000000" stroke="none" 
	d="
M104.101547,124.566498 
	C101.083527,124.804497 99.114365,125.381737 100.448006,129.106628 
	C100.655411,129.685913 99.767265,130.657455 98.869034,131.550079 
	C98.233475,128.767471 98.114601,125.882393 97.996597,122.597649 
	C97.997665,121.132027 97.997864,120.066071 98.243958,118.833153 
	C98.659393,118.110283 98.828934,117.554382 99.106842,116.779343 
	C99.414803,116.286667 99.676369,116.099869 100.249878,115.999939 
	C100.499870,116.000038 100.999847,115.999924 100.958000,116.371796 
	C100.595200,118.480812 100.274254,120.217972 99.953300,121.955124 
	C100.377495,122.080032 100.801689,122.204941 101.225883,122.329849 
	C101.936920,120.669983 102.647964,119.010109 103.359009,117.350235 
	C103.621773,119.611862 103.884537,121.873482 104.101547,124.566498 
z"/>
<path fill="#EB4241" opacity="1.000000" stroke="none" 
	d="
M8.014007,174.419006 
	C9.524946,174.902298 10.960138,175.797592 12.698392,176.846680 
	C13.333966,179.395142 13.666479,181.789825 13.999592,184.592255 
	C12.263258,183.030090 10.526326,181.060196 8.442514,179.046387 
	C8.043176,177.611984 7.990717,176.221497 8.014007,174.419006 
z"/>
<path fill="#F86765" opacity="1.000000" stroke="none" 
	d="
M103.390663,116.981171 
	C102.647964,119.010109 101.936920,120.669983 101.225883,122.329849 
	C100.801689,122.204941 100.377495,122.080032 99.953300,121.955124 
	C100.274254,120.217972 100.595200,118.480812 100.958084,115.996826 
	C101.000046,114.500015 101.000076,113.750046 101.000107,113.000076 
	C101.467583,112.747696 101.935059,112.495323 102.645500,112.133789 
	C103.066422,113.553795 103.244377,115.082947 103.390663,116.981171 
z"/>
<path fill="#FBF9F6" opacity="1.000000" stroke="none" 
	d="
M8.365999,145.092377 
	C8.450879,147.399033 8.190948,149.804611 7.839978,152.611633 
	C6.552892,152.815170 5.356845,152.617249 4.117830,152.412231 
	C5.591813,149.685471 6.806500,147.438385 8.365999,145.092377 
z"/>
<path fill="#ED4A49" opacity="1.000000" stroke="none" 
	d="
M75.003479,190.353226 
	C75.662926,190.728790 76.325546,191.456985 76.993660,192.528992 
	C76.999153,192.872833 76.579636,193.008163 76.361633,193.040802 
	C75.764641,192.284225 75.385651,191.495041 75.003479,190.353226 
z"/>
<path fill="#F55958" opacity="1.000000" stroke="none" 
	d="
M106.045395,145.629578 
	C105.799637,145.143784 105.603729,144.288544 105.636047,143.238098 
	C105.941269,143.781967 106.018250,144.521042 106.045395,145.629578 
z"/>
<path fill="#FBF9F6" opacity="1.000000" stroke="none" 
	d="
M4.550019,192.467300 
	C4.582962,192.522614 4.517076,192.411987 4.550019,192.467300 
z"/>
<path fill="#F75150" opacity="1.000000" stroke="none" 
	d="
M219.000610,144.998169 
	C219.504166,144.434113 220.007706,143.870041 220.754700,143.151611 
	C223.379623,146.129547 222.718811,148.544815 220.902817,152.219330 
	C217.676697,158.747116 216.194351,166.138412 214.010773,173.177261 
	C213.769852,173.953857 213.952072,175.330795 213.535294,175.514221 
	C205.875793,178.885223 201.994873,188.072281 192.415176,188.680023 
	C192.365479,187.574417 192.682358,186.787506 193.195801,185.728058 
	C202.149033,179.992188 207.355316,171.376480 212.307114,162.866394 
	C215.460526,157.446945 216.830780,150.989944 219.000610,144.998169 
z"/>
<path fill="#EF4645" opacity="1.000000" stroke="none" 
	d="
M218.947052,194.674652 
	C216.970657,201.190094 215.333755,202.820007 209.403976,200.706024 
	C200.684464,197.597488 191.866409,195.545670 182.731476,194.530487 
	C182.517151,194.506668 182.352463,194.036255 182.480927,193.388123 
	C183.865646,193.000778 184.934036,192.999481 186.002441,192.998169 
	C193.213409,192.999969 200.344009,192.722275 207.391251,195.412872 
	C210.632660,196.650421 215.087143,197.775360 217.892059,193.483521 
	C218.226074,193.771286 218.560089,194.059067 218.947052,194.674652 
z"/>
<path fill="#F25352" opacity="1.000000" stroke="none" 
	d="
M192.999252,186.000610 
	C192.682358,186.787506 192.365479,187.574417 192.024292,188.680359 
	C189.957581,189.000137 187.915161,189.000900 184.970352,189.002197 
	C178.712387,188.668686 173.356796,188.334656 168.000885,187.625793 
	C167.999756,186.501465 167.998962,185.751953 168.248932,185.001495 
	C168.666870,184.999954 168.834045,184.999359 169.469360,184.999374 
	C175.958313,184.999969 181.979095,184.999985 188.248810,185.278946 
	C189.998245,185.705475 191.498749,185.853043 192.999252,186.000610 
z"/>
<path fill="#ED4A49" opacity="1.000000" stroke="none" 
	d="
M168.001221,188.000610 
	C173.356796,188.334656 178.712387,188.668686 184.532684,189.003494 
	C185.310425,190.105667 185.623474,191.207077 185.969482,192.653320 
	C184.934036,192.999481 183.865646,193.000778 182.396484,193.004089 
	C180.609314,193.005432 179.222900,193.004776 176.991455,193.002869 
	C174.430542,193.001083 172.714661,193.000534 170.998779,193.000000 
	C169.785660,191.841721 168.572525,190.683441 167.287689,189.044739 
	C167.415909,188.290283 167.677658,188.102386 168.001221,188.000610 
z"/>
<path fill="#E44141" opacity="1.000000" stroke="none" 
	d="
M200.608154,202.998962 
	C198.945877,203.894806 196.845764,205.732437 195.006439,202.337738 
	C196.742432,202.332291 198.481812,202.665421 200.608154,202.998962 
z"/>
<path fill="#EF4645" opacity="1.000000" stroke="none" 
	d="
M170.999054,193.249847 
	C172.714661,193.000534 174.430542,193.001083 176.575424,193.003815 
	C176.899734,193.330124 176.709579,193.592239 176.213821,193.903152 
	C174.607407,194.008560 173.221130,194.003174 171.418961,193.998596 
	C171.003052,193.999390 170.999344,193.499695 170.999054,193.249847 
z"/>
<path fill="#FA7572" opacity="1.000000" stroke="none" 
	d="
M201.724350,102.226624 
	C202.781662,102.181122 204.257645,102.443321 204.247330,102.531219 
	C203.864685,105.794037 203.532562,109.085175 202.778534,112.274323 
	C202.257523,114.477905 200.950134,116.485413 200.308258,118.672714 
	C199.089966,122.824303 198.097046,127.042023 196.654083,131.654037 
	C195.326309,133.123260 194.076126,134.022491 193.428055,135.241760 
	C188.506241,144.501617 182.194397,152.528946 173.197693,158.133072 
	C171.592606,159.132904 169.565781,159.666504 167.666489,159.928909 
	C165.379791,160.244843 162.991562,159.809021 160.699097,160.102783 
	C151.420380,161.291779 145.030472,157.221588 142.374115,148.000229 
	C143.498215,148.000000 144.247589,148.000000 144.996948,148.000000 
	C144.946381,151.251556 146.517197,152.978485 149.797592,152.989212 
	C156.354095,153.010635 162.910782,153.000671 169.467285,152.975266 
	C170.117722,152.972733 170.804932,152.875153 171.411087,152.649673 
	C174.511642,151.496368 183.877136,140.597870 185.166153,137.318497 
	C186.118408,134.895859 187.242706,132.055130 189.188934,130.615067 
	C192.694977,128.020859 192.809799,124.803780 193.168549,121.054596 
	C193.421844,118.407494 195.209763,115.895302 196.371887,113.349960 
	C198.036194,109.704704 199.754608,106.084145 201.724350,102.226624 
z"/>
<path fill="#F2807E" opacity="1.000000" stroke="none" 
	d="
M135.013962,99.992615 
	C135.012802,98.281235 135.011642,96.569847 135.331848,94.386093 
	C135.770020,92.610535 135.886841,91.307343 136.003662,90.004150 
	C136.323807,89.902763 136.582520,89.716217 136.885162,89.226341 
	C137.115219,83.716522 136.103760,78.245453 139.726440,73.230576 
	C140.005524,75.826401 139.931686,78.655617 140.014786,81.480202 
	C140.315353,91.697586 140.668671,101.913422 141.001862,112.980911 
	C141.003540,115.220238 141.005432,116.608482 141.007324,117.996727 
	C141.005005,119.386604 141.002686,120.776474 141.000183,122.583328 
	C140.421341,122.875702 139.842667,122.751099 138.872864,122.706985 
	C137.987610,122.523773 137.493500,122.260071 136.999390,121.996368 
	C136.664429,119.284698 136.329468,116.573029 136.290497,113.141769 
	C136.724518,110.014870 137.151260,107.577667 136.906113,105.210045 
	C136.721252,103.424736 135.676147,101.728500 135.013962,99.992615 
z"/>
<path fill="#F47574" opacity="1.000000" stroke="none" 
	d="
M136.997772,122.452415 
	C137.493500,122.260071 137.987610,122.523773 138.740860,122.895294 
	C139.701263,128.236542 140.105026,133.534302 141.217514,138.678818 
	C141.864883,141.672455 143.648453,144.420380 144.958862,147.639435 
	C144.247589,148.000000 143.498215,148.000000 142.237411,147.687531 
	C140.151459,145.583466 138.576950,143.791855 137.001495,141.594742 
	C136.335114,138.460312 135.669693,135.731369 135.004272,133.002441 
	C139.238998,130.342407 135.933533,126.194458 136.997772,122.452415 
z"/>
<path fill="#FC8A88" opacity="1.000000" stroke="none" 
	d="
M145.000122,122.403244 
	C146.242126,122.741585 147.859833,123.200699 148.664703,124.271034 
	C154.301254,131.766586 161.754074,129.754105 167.735611,124.257629 
	C172.424423,119.949051 176.385986,114.451782 179.396164,108.803429 
	C184.361938,99.485573 186.138290,89.381935 183.187378,78.834183 
	C182.753403,77.282967 183.044647,75.528870 183.000793,73.433800 
	C187.554764,75.059120 187.572525,79.592804 187.829956,83.369850 
	C188.181198,88.522987 189.293808,94.082176 185.352600,98.685356 
	C184.987274,99.112068 184.943130,99.984322 185.036179,100.606911 
	C186.132874,107.945930 181.910263,113.636848 179.086807,119.727997 
	C175.085419,128.360336 166.858780,131.686478 158.808960,134.729538 
	C153.959030,136.562943 145.337967,128.629471 145.000122,122.403244 
z"/>
<path fill="#FC8A88" opacity="1.000000" stroke="none" 
	d="
M141.344940,118.049255 
	C141.005432,116.608482 141.003540,115.220238 141.003571,113.415390 
	C142.069977,112.999237 143.134476,112.999687 144.599045,113.333420 
	C144.999619,114.110970 145.000107,114.555237 145.000610,114.999504 
	C145.000397,116.714241 145.000198,118.428970 144.999390,120.572311 
	C143.893372,120.034538 142.787949,119.068161 141.344940,118.049255 
z"/>
<path fill="#FB8B88" opacity="1.000000" stroke="none" 
	d="
M30.283829,111.212387 
	C30.742426,108.696861 31.489115,106.395401 32.614075,104.042801 
	C32.591095,110.654724 33.718704,116.502022 40.771297,119.470467 
	C48.626545,122.776756 59.010967,122.723656 65.323662,114.130707 
	C70.111015,107.614052 71.728470,100.567604 73.440254,92.893661 
	C75.112633,85.396385 74.692436,78.627945 73.008423,71.549164 
	C72.170105,68.025314 70.947876,64.875526 66.529510,64.558350 
	C66.007843,64.520897 65.566559,63.363815 65.044647,62.360722 
	C71.314011,59.713257 77.365509,64.536507 77.960686,72.524002 
	C78.439751,78.953186 79.703522,85.561440 78.744804,91.802315 
	C77.437019,100.315559 74.485268,108.598007 71.895805,116.872208 
	C71.439438,118.330452 69.374992,119.357063 67.933540,120.420944 
	C64.625763,122.862312 61.269363,125.240479 57.875957,127.561340 
	C56.958954,128.188507 55.873745,128.813736 54.806873,128.939178 
	C46.268871,129.943100 39.373928,126.188240 33.771996,120.408279 
	C31.759085,118.331398 31.585140,114.472214 30.283829,111.212387 
z"/>
<path fill="#FC9793" opacity="1.000000" stroke="none" 
	d="
M37.282055,92.250732 
	C37.811703,89.804039 38.620373,87.607887 39.963455,85.401115 
	C40.666161,87.260902 40.834454,89.131294 41.002106,91.401421 
	C41.001381,92.867157 41.001301,93.933167 41.000446,95.438393 
	C41.407619,99.226173 39.380676,104.297134 44.685867,104.753410 
	C52.737331,105.445877 55.815022,106.264114 58.199604,98.680611 
	C59.034828,96.024399 59.837761,92.863350 61.746326,91.143242 
	C65.612549,87.658745 64.765312,83.473785 65.043541,79.260086 
	C65.500992,72.332016 59.773209,73.450203 55.995380,71.990967 
	C57.699905,68.627464 60.827530,68.037781 63.556046,69.562309 
	C65.514435,70.656532 67.709351,73.377724 67.773232,75.435974 
	C67.982437,82.176575 67.711235,89.007683 66.785301,95.687637 
	C65.767151,103.032837 54.646355,112.575050 48.408691,113.100937 
	C41.125820,113.714935 37.803299,109.040405 37.095451,102.253197 
	C36.761757,99.053543 37.376236,95.754997 37.282055,92.250732 
z"/>
<path fill="#FC9C9A" opacity="1.000000" stroke="none" 
	d="
M55.669502,71.852325 
	C59.773209,73.450203 65.500992,72.332016 65.043541,79.260086 
	C64.765312,83.473785 65.612549,87.658745 61.746326,91.143242 
	C59.837761,92.863350 59.034828,96.024399 58.199604,98.680611 
	C55.815022,106.264114 52.737331,105.445877 44.685867,104.753410 
	C39.380676,104.297134 41.407619,99.226173 41.363480,95.478485 
	C49.907402,99.825462 52.363750,99.050316 57.139397,90.276817 
	C57.523491,89.571190 58.564697,89.001442 58.578125,88.353569 
	C58.642548,85.245354 59.084785,81.933708 58.180859,79.077942 
	C57.329697,76.388878 54.662426,75.399429 51.611565,76.832718 
	C51.004925,77.117722 49.884151,76.308357 49.000465,76.003632 
	C48.755989,75.206123 48.511513,74.408623 48.146057,73.318680 
	C50.464600,72.588722 52.904110,72.151207 55.669502,71.852325 
z"/>
<path fill="#FB8281" opacity="1.000000" stroke="none" 
	d="
M26.999771,119.000305 
	C27.443987,118.999969 27.888205,118.999634 28.665558,118.999252 
	C31.140810,127.470917 37.333874,130.322449 45.250904,132.303345 
	C51.552097,133.879944 56.928211,134.517639 62.803772,131.195084 
	C70.248741,126.985062 75.205719,121.181870 77.969933,113.055412 
	C79.967857,107.181717 81.405098,101.416138 81.069000,95.148163 
	C80.753853,89.270744 80.624725,83.330475 81.111015,77.475769 
	C81.782059,69.396637 79.849724,62.461525 74.373779,56.346146 
	C75.453712,55.661549 76.229576,55.327106 77.005432,54.992668 
	C78.071609,54.994221 79.137787,54.995777 80.602592,55.408604 
	C81.352051,57.585133 81.629517,59.368824 82.067558,61.112160 
	C83.343704,66.190971 85.523544,71.207726 85.803841,76.333321 
	C86.231445,84.153130 85.531654,92.055092 85.006088,99.901787 
	C84.192017,112.055939 79.892212,122.997574 71.968262,132.206161 
	C69.939522,134.563812 66.310425,135.748245 63.211819,136.938782 
	C56.836269,139.388382 50.489067,138.269577 43.825989,137.262405 
	C33.797096,135.746414 27.210775,129.566574 26.999771,119.000305 
z"/>
<path fill="#FA7E7C" opacity="1.000000" stroke="none" 
	d="
M77.210785,54.738579 
	C76.229576,55.327106 75.453712,55.661549 74.339081,55.998375 
	C73.360794,55.549137 72.721291,55.097511 72.040588,54.325130 
	C74.588028,53.598167 77.176666,53.191959 79.765297,52.785751 
	C79.834961,53.017872 79.904633,53.249996 79.974297,53.482117 
	C79.121582,53.816238 78.268867,54.150364 77.210785,54.738579 
z"/>
<path fill="#F96A68" opacity="1.000000" stroke="none" 
	d="
M144.000610,161.000000 
	C149.468002,164.922287 154.678284,169.593658 162.064560,168.931946 
	C165.110199,168.659088 168.356430,168.182678 171.047119,166.856674 
	C178.581390,163.143692 184.656555,158.014664 190.358749,151.362656 
	C198.389786,141.993881 200.758987,130.468689 206.265991,120.245331 
	C207.379059,118.178993 207.668091,115.668785 208.666260,113.181793 
	C209.997330,114.740173 210.999176,116.479980 211.665863,118.760925 
	C210.574432,120.103569 209.524963,120.776131 209.107101,121.726425 
	C204.741974,131.653610 201.147217,141.992889 195.949402,151.454590 
	C192.523163,157.691467 187.648987,163.800186 181.960159,167.970673 
	C173.392822,174.251389 163.352020,176.204224 153.146103,170.582367 
	C151.862854,169.875519 150.386047,169.520081 148.998917,169.001831 
	C148.555252,169.000748 148.111603,168.999680 147.296387,168.641815 
	C145.950089,165.856674 144.975342,163.428329 144.000610,161.000000 
z"/>
<path fill="#F86564" opacity="1.000000" stroke="none" 
	d="
M149.038696,169.357178 
	C150.386047,169.520081 151.862854,169.875519 153.146103,170.582367 
	C163.352020,176.204224 173.392822,174.251389 181.960159,167.970673 
	C187.648987,163.800186 192.523163,157.691467 195.949402,151.454590 
	C201.147217,141.992889 204.741974,131.653610 209.107101,121.726425 
	C209.524963,120.776131 210.574432,120.103569 211.665344,119.151337 
	C212.819809,129.508133 207.765945,138.077362 202.866730,146.700211 
	C200.758453,150.410858 198.922165,154.303833 196.531296,157.820969 
	C188.893402,169.056808 179.377808,178.051910 164.727249,176.688660 
	C159.341248,176.187485 154.285095,172.141556 149.038696,169.357178 
z"/>
<path fill="#F75D5C" opacity="1.000000" stroke="none" 
	d="
M216.726074,130.195969 
	C217.000000,132.396530 217.000015,134.793777 216.725861,137.794037 
	C209.039261,150.437164 204.139771,163.919556 194.730515,174.867401 
	C191.575195,178.538696 188.187729,181.001526 183.777908,181.774460 
	C178.929474,182.624252 173.932739,182.627762 168.755157,182.832993 
	C168.339600,182.110855 168.169495,181.555740 167.999390,181.000610 
	C181.133514,179.927887 192.088821,175.365952 198.613556,162.903702 
	C204.345993,151.954758 210.489944,141.221283 216.726074,130.195969 
z"/>
<path fill="#F16866" opacity="1.000000" stroke="none" 
	d="
M144.000168,160.666672 
	C144.975342,163.428329 145.950089,165.856674 146.963623,168.640961 
	C146.556839,168.998276 146.111252,168.999603 145.133560,168.743744 
	C143.401199,167.323364 142.200912,166.160156 141.000641,164.996948 
	C138.525085,157.727036 135.743591,150.542130 133.690933,143.154724 
	C132.496048,138.854385 132.469254,134.229477 131.961182,129.374298 
	C132.753220,128.997498 133.500946,128.997009 134.624329,128.998260 
	C135.000000,129.000000 135.004272,129.003357 135.004272,129.003357 
	C135.003311,130.069733 135.002335,131.136108 135.002808,132.602463 
	C135.669693,135.731369 136.335114,138.460312 137.000305,142.009048 
	C139.333160,148.219238 141.666275,153.609619 143.999390,159.000000 
	C143.999512,159.444443 143.999619,159.888901 144.000168,160.666672 
z"/>
<path fill="#F05A59" opacity="1.000000" stroke="none" 
	d="
M140.655350,164.966187 
	C142.200912,166.160156 143.401199,167.323364 144.799393,168.744812 
	C147.300354,174.467300 152.621445,175.656219 157.707550,178.176086 
	C158.722595,179.093796 159.361893,179.545670 160.001205,179.997559 
	C162.392471,180.331802 164.783752,180.666046 167.587204,181.000458 
	C168.169495,181.555740 168.339600,182.110855 168.755005,183.166138 
	C169.000610,184.110443 169.000916,184.554611 169.001221,184.998779 
	C168.834045,184.999359 168.666870,184.999954 167.811401,185.000793 
	C165.079590,185.003128 163.036057,185.005219 160.992538,185.007324 
	C160.549545,185.007172 160.106537,185.007019 159.280701,184.663239 
	C158.187332,183.673477 157.514603,182.978973 156.760223,182.388840 
	C150.926163,177.824905 144.990295,173.384537 139.300156,168.648529 
	C138.085464,167.637527 137.745621,165.575424 137.002747,163.997559 
	C138.105179,164.310196 139.207611,164.622818 140.655350,164.966187 
z"/>
<path fill="#F75D5C" opacity="1.000000" stroke="none" 
	d="
M159.959290,179.677216 
	C159.361893,179.545670 158.722595,179.093796 158.041946,178.321259 
	C158.639526,178.452698 159.278442,178.904785 159.959290,179.677216 
z"/>
<path fill="#FC9D9A" opacity="1.000000" stroke="none" 
	d="
M144.992188,75.997299 
	C144.994247,75.553406 144.996307,75.109512 145.000397,74.332687 
	C146.034973,72.756332 147.257309,71.623421 148.059418,70.245811 
	C149.597641,67.603928 150.609467,64.619102 152.361877,62.146694 
	C155.152191,58.209919 159.808182,57.583385 163.281052,61.034012 
	C165.995117,63.730690 168.607880,67.065872 169.811020,70.611015 
	C171.317947,75.051292 171.586502,79.981949 171.863327,84.731606 
	C171.960373,86.396271 170.499222,88.151756 169.374695,89.472778 
	C169.953049,80.934052 167.629669,73.648888 162.988327,67.063637 
	C160.129883,63.008011 154.215500,62.765820 152.188461,66.878281 
	C146.571579,78.273842 145.137390,89.918083 151.992630,101.431664 
	C154.948334,106.395866 159.300919,106.147171 162.404938,101.323006 
	C164.310974,98.360710 166.782043,95.761986 168.999390,93.000000 
	C169.154297,94.691765 169.569565,96.407227 169.418091,98.071106 
	C168.828766,104.545357 162.331589,106.575310 159.091415,111.134186 
	C157.459778,113.429878 154.274048,111.767921 152.562698,109.145729 
	C150.347900,105.752113 147.993164,102.449806 145.350449,98.584290 
	C144.998871,90.706032 144.995529,83.351669 144.992188,75.997299 
z"/>
<path fill="#FDA29F" opacity="1.000000" stroke="none" 
	d="
M168.999695,92.625107 
	C166.782043,95.761986 164.310974,98.360710 162.404938,101.323006 
	C159.300919,106.147171 154.948334,106.395866 151.992630,101.431664 
	C145.137390,89.918083 146.571579,78.273842 152.188461,66.878281 
	C154.215500,62.765820 160.129883,63.008011 162.988327,67.063637 
	C167.629669,73.648888 169.953049,80.934052 169.000488,89.540359 
	C169.000824,90.750679 169.000412,91.500443 168.999695,92.625107 
M158.179611,94.967133 
	C164.558121,91.167587 166.332001,78.737556 161.210724,73.727280 
	C158.372345,70.950417 154.130600,71.173775 152.321747,74.583458 
	C149.387421,80.114670 148.470963,86.023643 151.988968,91.605042 
	C153.010803,93.226234 155.550491,93.890732 158.179611,94.967133 
z"/>
<path fill="#FC9390" opacity="1.000000" stroke="none" 
	d="
M144.614792,76.076118 
	C144.995529,83.351669 144.998871,90.706032 145.003235,98.528671 
	C144.163773,104.630447 147.899307,108.549889 150.430267,112.808228 
	C153.955917,118.740181 164.409256,116.007362 168.259460,110.650009 
	C173.992416,102.672859 176.011398,94.152054 176.458527,84.281555 
	C176.769531,77.415985 174.422409,71.870232 173.006256,65.388115 
	C177.546051,63.653355 178.307632,67.504234 178.575943,70.023674 
	C179.528320,78.967255 179.105240,87.854546 177.837723,96.876495 
	C176.720764,104.826782 172.500549,110.800262 168.796249,117.233269 
	C166.084961,121.941772 154.990814,122.672012 150.282669,118.763763 
	C148.772644,117.510277 147.226898,116.299835 145.349045,115.034607 
	C145.000107,114.555237 144.999619,114.110970 144.998352,113.333504 
	C144.127396,107.556877 142.963928,102.140373 142.461090,96.663223 
	C141.828079,89.768021 140.727798,82.732384 144.614792,76.076118 
z"/>
<path fill="#F8716D" opacity="1.000000" stroke="none" 
	d="
M144.382538,159.005890 
	C141.666275,153.609619 139.333160,148.219238 137.001251,142.414551 
	C138.576950,143.791855 140.151459,145.583466 141.862671,147.687775 
	C145.030472,157.221588 151.420380,161.291779 160.699097,160.102783 
	C162.991562,159.809021 165.379791,160.244843 167.666489,159.928909 
	C169.565781,159.666504 171.592606,159.132904 173.197693,158.133072 
	C182.194397,152.528946 188.506241,144.501617 193.428055,135.241760 
	C194.076126,134.022491 195.326309,133.123260 196.648529,132.037598 
	C193.431381,138.407166 190.757355,145.579208 186.085876,151.043671 
	C179.069046,159.251663 169.990753,164.944748 158.364441,163.913742 
	C155.883820,163.693756 153.481491,162.429688 151.077835,161.551514 
	C148.948685,160.773651 146.867859,159.863495 144.382538,159.005890 
z"/>
<path fill="#FDE0A5" opacity="1.000000" stroke="none" 
	d="
M103.346634,76.984993 
	C103.311485,76.062515 103.359756,74.711823 104.009087,74.293030 
	C111.828979,69.249527 112.172234,61.429642 112.006645,53.380684 
	C111.976196,51.900574 112.004890,50.419254 112.364548,48.403046 
	C114.145088,45.578239 115.567360,43.288876 116.989624,40.999512 
	C116.989624,40.999512 116.998512,40.999935 117.003235,41.000275 
	C117.005943,43.371040 117.003914,45.741470 116.705902,48.847656 
	C115.406075,55.941639 117.323204,62.873970 112.167870,68.433937 
	C110.588501,70.137276 110.024895,72.782463 108.996124,74.996338 
	C107.233856,75.660805 105.471581,76.325279 103.346634,76.984993 
z"/>
<path fill="#FDD481" opacity="1.000000" stroke="none" 
	d="
M132.101257,90.628036 
	C127.611893,88.008202 123.181770,85.010223 118.383110,82.002518 
	C114.276596,78.680298 110.547157,81.778938 106.417114,82.018692 
	C107.372696,76.976852 110.854858,76.008438 115.219528,77.642250 
	C120.963562,79.792419 126.580421,82.282303 132.551361,84.784943 
	C132.620667,86.712471 132.390579,88.481171 132.101257,90.628036 
z"/>
<path fill="#FCDD9A" opacity="1.000000" stroke="none" 
	d="
M109.378494,74.991974 
	C110.024895,72.782463 110.588501,70.137276 112.167870,68.433937 
	C117.323204,62.873970 115.406075,55.941639 116.706100,49.291824 
	C117.334793,50.870350 117.851822,52.730129 117.957283,54.612968 
	C118.122658,57.565563 117.553780,60.620621 118.098122,63.479534 
	C119.978836,73.357208 116.954285,72.378723 109.378494,74.991974 
z"/>
<path fill="#F86C69" opacity="1.000000" stroke="none" 
	d="
M100.982407,84.743217 
	C101.060646,86.039162 101.028526,87.113968 100.972206,88.591019 
	C100.473785,87.462494 99.999565,85.931709 99.811424,84.165154 
	C100.418846,84.044411 100.677017,84.241974 100.982407,84.743217 
z"/>
<path fill="#FCDD9A" opacity="1.000000" stroke="none" 
	d="
M121.783562,67.160416 
	C122.040222,66.960106 122.520935,66.979134 122.761383,66.986740 
	C122.562241,67.824699 122.122643,68.655045 121.683044,69.485390 
	C121.630997,68.777168 121.578949,68.068954 121.783562,67.160416 
z"/>
<path fill="#FDE0A5" opacity="1.000000" stroke="none" 
	d="
M100.184601,78.220657 
	C100.162193,77.972954 100.582672,77.991676 100.793076,77.997818 
	C101.000946,78.180305 100.998405,78.356651 100.986816,78.797714 
	C100.635300,78.975365 100.378380,78.777344 100.184601,78.220657 
z"/>
<path fill="#F2807E" opacity="1.000000" stroke="none" 
	d="
M140.367798,68.943604 
	C140.152435,67.182518 140.292374,65.352547 140.716461,63.261169 
	C140.908096,64.958084 140.815598,66.916397 140.367798,68.943604 
z"/>
<path fill="#F2807E" opacity="1.000000" stroke="none" 
	d="
M148.548370,56.468273 
	C148.580963,56.523006 148.515762,56.413540 148.548370,56.468273 
z"/>
<path fill="#FA7E7C" opacity="1.000000" stroke="none" 
	d="
M26.666504,119.000000 
	C27.210775,129.566574 33.797096,135.746414 43.825989,137.262405 
	C50.489067,138.269577 56.836269,139.388382 63.211819,136.938782 
	C66.310425,135.748245 69.939522,134.563812 71.968262,132.206161 
	C79.892212,122.997574 84.192017,112.055939 85.006088,99.901787 
	C85.531654,92.055092 86.231445,84.153130 85.803841,76.333321 
	C85.523544,71.207726 83.343704,66.190971 82.067558,61.112160 
	C81.629517,59.368824 81.352051,57.585133 81.002411,55.409164 
	C82.766289,55.642509 84.528984,56.286568 86.684219,57.325920 
	C88.713188,60.305256 89.913086,62.571598 89.274269,66.201431 
	C88.438339,70.951233 88.761200,76.170425 89.806671,80.918846 
	C91.120193,86.884773 92.889618,92.556023 90.712654,98.701187 
	C89.737114,101.454948 89.553886,104.490341 89.020767,107.399704 
	C86.920204,118.862892 84.624657,130.196823 73.939285,137.403488 
	C73.168282,137.923492 73.291786,139.769760 72.653030,141.034485 
	C70.870911,142.379501 69.435150,143.689453 67.666161,144.999466 
	C66.888618,144.999908 66.444313,145.000259 65.610886,145.045441 
	C61.378956,145.726852 57.549484,146.763458 53.689735,146.892181 
	C49.474522,147.032761 45.231285,146.332901 40.833176,145.754120 
	C40.111076,145.339050 39.556072,145.169220 38.948433,144.654022 
	C33.271149,140.990967 28.177441,137.203705 26.349052,130.431091 
	C26.282255,130.183670 25.468010,130.138016 25.001301,129.540375 
	C25.000385,125.721191 25.000269,122.359985 25.000153,118.998779 
	C25.444513,118.999084 25.888874,118.999397 26.666504,119.000000 
z"/>
<path fill="#FA7876" opacity="1.000000" stroke="none" 
	d="
M72.999390,140.999390 
	C73.291786,139.769760 73.168282,137.923492 73.939285,137.403488 
	C84.624657,130.196823 86.920204,118.862892 89.020767,107.399704 
	C89.553886,104.490341 89.737114,101.454948 90.712654,98.701187 
	C92.889618,92.556023 91.120193,86.884773 89.806671,80.918846 
	C88.761200,76.170425 88.438339,70.951233 89.274269,66.201431 
	C89.913086,62.571598 88.713188,60.305256 87.037262,57.361526 
	C91.676994,58.118214 92.620842,61.764629 93.004295,65.819801 
	C93.683327,73.000694 94.370110,80.181091 95.128693,87.353760 
	C95.184311,87.879631 95.844620,88.341553 96.607101,88.918610 
	C97.326294,92.385231 97.662170,95.766449 97.722618,99.812325 
	C95.959198,104.360695 94.035339,108.140640 93.080673,112.151291 
	C91.462318,118.950119 89.259918,125.102409 85.431366,131.274002 
	C81.748322,137.211029 77.321136,142.060913 72.543953,146.766464 
	C70.562187,148.718536 67.546051,149.620483 65.000595,150.612457 
	C65.333923,148.483490 65.666962,146.742050 66.000000,145.000610 
	C66.444313,145.000259 66.888618,144.999908 68.031555,144.995560 
	C70.153252,143.660843 71.576324,142.330124 72.999390,140.999390 
z"/>
<path fill="#FCE4AD" opacity="1.000000" stroke="none" 
	d="
M116.992355,40.555378 
	C115.567360,43.288876 114.145088,45.578239 112.366386,47.936436 
	C112.006004,46.935551 112.002060,45.865833 111.994690,44.394844 
	C112.318390,36.925423 112.211746,29.796921 113.182686,22.818342 
	C113.579918,19.963293 116.307617,17.432484 117.983505,14.379759 
	C118.326248,16.056437 118.660599,18.107523 118.635971,20.643694 
	C117.853149,22.420515 117.429291,23.712254 117.005432,25.003992 
	C117.004143,26.717180 117.002853,28.430367 116.775558,30.716743 
	C116.698730,31.859900 116.847900,32.429867 116.997070,32.999832 
	C116.996414,35.370300 116.995750,37.740772 116.992355,40.555378 
z"/>
<path fill="#FCE4AD" opacity="1.000000" stroke="none" 
	d="
M110.001717,25.476871 
	C110.334610,31.026756 110.668221,37.044346 111.002853,43.529892 
	C111.003868,47.944561 111.003868,51.891273 111.003868,55.837990 
	C110.670052,55.837898 110.336243,55.837811 110.002426,55.837719 
	C110.002426,45.873337 110.002426,35.908955 110.001717,25.476871 
z"/>
<path fill="#F35250" opacity="1.000000" stroke="none" 
	d="
M51.542252,193.002167 
	C50.506138,198.679657 45.218384,196.305984 42.416454,196.276154 
	C36.748142,196.215805 30.174849,195.302200 25.704554,192.226379 
	C21.043699,189.019424 17.382931,183.402435 17.013258,176.853485 
	C16.938826,175.534866 16.999249,174.208618 16.997450,172.443863 
	C17.442358,172.001221 17.887308,172.000610 18.665939,171.999695 
	C24.062895,187.419235 32.576866,192.992599 51.542252,193.002167 
z"/>
<path fill="#F75D5C" opacity="1.000000" stroke="none" 
	d="
M28.963478,179.644775 
	C27.424519,178.855133 25.333885,178.034027 24.373285,176.503616 
	C21.884218,172.538147 19.892889,168.260223 17.354538,164.051819 
	C17.004732,161.955933 17.003250,159.915283 17.003162,157.437256 
	C18.443777,158.300674 19.882999,159.601486 21.660843,160.951752 
	C22.000187,161.444870 22.000910,161.888519 22.002457,162.664856 
	C24.311071,168.428436 26.618862,173.859299 28.963478,179.644775 
z"/>
<path fill="#F47574" opacity="1.000000" stroke="none" 
	d="
M25.000023,118.548676 
	C25.000269,122.359985 25.000385,125.721191 25.000406,129.978119 
	C24.999596,132.916718 24.998882,134.959579 24.653156,136.969879 
	C23.206594,136.624054 22.105043,136.310806 21.003002,135.553497 
	C20.999361,132.738693 20.996208,130.367981 20.993057,127.997253 
	C21.040464,123.450218 20.835627,118.878601 21.274996,114.369759 
	C21.424505,112.835464 23.196283,111.459251 24.603836,109.997711 
	C24.987221,112.689262 24.993555,115.393913 25.000023,118.548676 
z"/>
<path fill="#F26969" opacity="1.000000" stroke="none" 
	d="
M20.643517,128.000214 
	C20.996208,130.367981 20.999361,132.738693 21.001781,135.980164 
	C21.334656,140.233719 21.668259,143.616562 22.001183,147.374542 
	C22.000307,148.500000 22.000114,149.250305 21.999922,150.000610 
	C21.506100,149.738403 21.012280,149.476196 20.259497,149.106995 
	C18.364634,142.720535 14.911804,136.725815 17.002689,129.431335 
	C18.100729,128.667816 19.197351,128.335495 20.643517,128.000214 
z"/>
<path fill="#FDE0A5" opacity="1.000000" stroke="none" 
	d="
M117.311127,24.845474 
	C117.429291,23.712254 117.853149,22.420515 118.634232,21.061882 
	C118.533257,22.225643 118.075043,23.456301 117.311127,24.845474 
z"/>
<path fill="#FDE0A5" opacity="1.000000" stroke="none" 
	d="
M117.223495,32.855042 
	C116.847900,32.429867 116.698730,31.859900 116.775696,31.144922 
	C117.151192,31.570024 117.300552,32.140133 117.223495,32.855042 
z"/>
<path fill="#FC9C9A" opacity="1.000000" stroke="none" 
	d="
M41.002747,91.001694 
	C40.834454,89.131294 40.666161,87.260902 40.253716,85.197510 
	C40.267170,84.508766 40.524769,84.013016 40.891151,83.259239 
	C42.112011,82.353455 43.224098,81.705681 44.667294,81.430771 
	C43.666519,84.869652 42.334633,87.935677 41.002747,91.001694 
z"/>
<path fill="#F65A58" opacity="1.000000" stroke="none" 
	d="
M169.469360,184.999374 
	C169.000916,184.554611 169.000610,184.110443 169.000458,183.333130 
	C173.932739,182.627762 178.929474,182.624252 183.777908,181.774460 
	C188.187729,181.001526 191.575195,178.538696 194.730515,174.867401 
	C204.139771,163.919556 209.039261,150.437164 216.725845,138.198242 
	C217.000351,140.074005 217.000717,142.148636 216.812714,144.881348 
	C215.749557,147.026276 214.874771,148.513138 213.659729,150.034286 
	C212.546524,151.045929 211.773575,152.023270 210.993927,153.390442 
	C208.258896,167.819885 197.616028,176.031937 187.999893,185.000000 
	C181.979095,184.999985 175.958313,184.999969 169.469360,184.999374 
z"/>
<path fill="#F75654" opacity="1.000000" stroke="none" 
	d="
M214.000000,150.000000 
	C214.874771,148.513138 215.749557,147.026276 216.812164,145.269409 
	C217.656326,144.830658 218.312637,144.661911 218.984787,144.745667 
	C216.830780,150.989944 215.460526,157.446945 212.307114,162.866394 
	C207.355316,171.376480 202.149033,179.992188 193.195801,185.728058 
	C191.498749,185.853043 189.998245,185.705475 188.248810,185.278946 
	C197.616028,176.031937 208.258896,167.819885 211.334106,153.355988 
	C212.453979,151.954468 213.226990,150.977234 214.000000,150.000000 
z"/>
<path fill="#FDA19E" opacity="1.000000" stroke="none" 
	d="
M41.002106,91.401421 
	C42.334633,87.935677 43.666519,84.869652 44.999359,81.402122 
	C46.122517,79.428253 47.244728,77.855896 48.683701,76.143585 
	C49.884151,76.308357 51.004925,77.117722 51.611565,76.832718 
	C54.662426,75.399429 57.329697,76.388878 58.180859,79.077942 
	C59.084785,81.933708 58.642548,85.245354 58.578125,88.353569 
	C58.564697,89.001442 57.523491,89.571190 57.139397,90.276817 
	C52.363750,99.050316 49.907402,99.825462 41.364250,95.039276 
	C41.001301,93.933167 41.001381,92.867157 41.002106,91.401421 
z"/>
<path fill="#F75D5C" opacity="1.000000" stroke="none" 
	d="
M60.554688,185.000214 
	C58.605698,185.856613 56.204826,187.430130 53.816978,187.410599 
	C49.596859,187.376099 45.384674,186.371597 41.084290,185.386841 
	C47.369160,185.000351 53.738914,185.000092 60.554688,185.000214 
z"/>
<path fill="#F75D5C" opacity="1.000000" stroke="none" 
	d="
M36.946163,184.649902 
	C35.370449,184.231873 33.739758,183.464951 32.054459,182.349030 
	C33.630295,182.767014 35.260742,183.534027 36.946163,184.649902 
z"/>
<path fill="#F75D5C" opacity="1.000000" stroke="none" 
	d="
M30.959198,181.678314 
	C30.361633,181.546387 29.722366,181.093872 29.041767,180.320587 
	C29.639456,180.452454 30.278475,180.905090 30.959198,181.678314 
z"/>
<path fill="#F9706D" opacity="1.000000" stroke="none" 
	d="
M22.001865,146.999390 
	C21.668259,143.616562 21.334656,140.233719 21.002272,136.424225 
	C22.105043,136.310806 23.206594,136.624054 24.653652,137.386139 
	C25.000227,139.222702 25.001297,140.610428 25.008530,142.362320 
	C27.289215,145.895477 28.954058,149.915268 31.957275,152.067398 
	C39.692459,157.610489 48.535568,160.876694 58.265461,159.886536 
	C62.058102,159.500595 66.119019,158.525513 69.371483,156.636917 
	C81.028084,149.868347 89.161598,140.025528 93.608002,127.140182 
	C94.189461,125.455170 96.490929,124.363701 97.995728,122.997314 
	C98.114601,125.882393 98.233475,128.767471 98.675407,131.826599 
	C98.998650,132.444809 98.998825,132.888977 98.605659,133.667130 
	C96.808357,134.843124 94.925179,135.357315 94.085266,136.585159 
	C90.839287,141.330368 88.564606,146.891907 84.733139,151.047638 
	C79.527435,156.693909 73.820702,162.047821 66.067741,164.556870 
	C59.431580,166.704498 53.229069,165.565277 46.581177,164.321503 
	C36.262905,162.391006 28.632782,157.671204 23.865492,148.316071 
	C23.559885,147.716354 22.637390,147.430984 22.001865,146.999390 
z"/>
<path fill="#F86C69" opacity="1.000000" stroke="none" 
	d="
M22.001183,147.374542 
	C22.637390,147.430984 23.559885,147.716354 23.865492,148.316071 
	C28.632782,157.671204 36.262905,162.391006 46.581177,164.321503 
	C53.229069,165.565277 59.431580,166.704498 66.067741,164.556870 
	C73.820702,162.047821 79.527435,156.693909 84.733139,151.047638 
	C88.564606,146.891907 90.839287,141.330368 94.085266,136.585159 
	C94.925179,135.357315 96.808357,134.843124 98.605400,134.000259 
	C98.847694,140.586105 95.925568,146.078644 92.230515,151.285049 
	C90.914543,153.139297 89.719612,155.080139 88.491127,156.995361 
	C88.133522,157.552887 87.995163,158.352936 87.511459,158.711731 
	C83.313126,161.825821 79.466019,166.138702 74.733490,167.650726 
	C65.901115,170.472626 57.238041,173.884064 47.003296,170.422211 
	C39.101307,167.749405 31.582401,165.606873 26.410126,158.802505 
	C24.581995,156.397537 23.457386,153.457794 22.005756,150.381409 
	C22.000114,149.250305 22.000307,148.500000 22.001183,147.374542 
z"/>
<path fill="#EB4241" opacity="1.000000" stroke="none" 
	d="
M13.999834,185.416168 
	C14.982881,185.608154 16.810284,186.207184 16.816961,186.825882 
	C16.880318,192.694946 21.199429,194.850723 25.388704,197.172272 
	C27.680195,198.442139 29.991716,199.675858 32.648060,200.964462 
	C32.106979,201.545380 31.193604,202.584457 30.320009,202.552017 
	C22.874405,202.275574 13.063647,194.504272 13.999834,185.416168 
z"/>
<path fill="#EB4241" opacity="1.000000" stroke="none" 
	d="
M36.815742,201.250748 
	C38.284355,201.428360 39.578125,201.847397 40.943092,202.621902 
	C38.992210,203.208511 36.970131,203.439667 34.948051,203.670807 
	C34.874729,203.292831 34.801403,202.914841 34.728081,202.536850 
	C35.365688,202.188614 36.003292,201.840393 36.815742,201.250748 
z"/>
<path fill="#EB4241" opacity="1.000000" stroke="none" 
	d="
M44.215034,202.887421 
	C44.098934,202.671021 44.288326,202.411926 44.781616,202.108078 
	C44.900570,202.325562 44.712238,202.586029 44.215034,202.887421 
z"/>
<path fill="#EB5352" opacity="1.000000" stroke="none" 
	d="
M136.945404,163.647797 
	C137.745621,165.575424 138.085464,167.637527 139.300156,168.648529 
	C144.990295,173.384537 150.926163,177.824905 156.760223,182.388840 
	C157.514603,182.978973 158.187332,183.673477 158.948456,184.664917 
	C157.246063,185.008926 155.493088,185.007645 153.370041,185.000641 
	C151.882294,183.784866 150.862213,181.651062 149.630432,181.520905 
	C143.530945,180.876419 141.298080,175.486496 138.370697,171.797668 
	C134.229202,166.578918 128.540390,161.638687 129.006989,153.405518 
	C130.204285,154.402496 131.459351,155.770920 132.574768,157.244995 
	C134.069122,159.219849 135.455383,161.276489 136.945404,163.647797 
z"/>
<path fill="#EC7978" opacity="1.000000" stroke="none" 
	d="
M135.008484,100.413658 
	C135.676147,101.728500 136.721252,103.424736 136.906113,105.210045 
	C137.151260,107.577667 136.724518,110.014870 136.290405,112.711395 
	C135.663849,108.945312 135.333420,104.890007 135.008484,100.413658 
z"/>
<path fill="#EC7978" opacity="1.000000" stroke="none" 
	d="
M135.707886,90.149612 
	C135.886841,91.307343 135.770020,92.610535 135.335297,93.958382 
	C135.148972,92.767052 135.280548,91.531067 135.707886,90.149612 
z"/>
<path fill="#F16866" opacity="1.000000" stroke="none" 
	d="
M134.998291,128.997864 
	C135.091614,128.961624 135.186630,128.927521 135.142975,128.948395 
	C135.004272,129.003357 135.000000,129.000000 134.998291,128.997864 
z"/>
<path fill="#F16866" opacity="1.000000" stroke="none" 
	d="
M134.549927,126.466843 
	C134.583435,126.523445 134.516418,126.410240 134.549927,126.466843 
z"/>
<path fill="#EB5352" opacity="1.000000" stroke="none" 
	d="
M161.002716,185.383423 
	C163.036057,185.005219 165.079590,185.003128 167.560638,185.001740 
	C167.998962,185.751953 167.999756,186.501465 168.000885,187.625793 
	C167.677658,188.102386 167.415909,188.290283 167.107758,188.784164 
	C165.003983,187.922531 163.008438,186.841049 161.002716,185.383423 
z"/>
<path fill="#ED4A49" opacity="1.000000" stroke="none" 
	d="
M61.819252,193.748535 
	C61.253349,193.998611 60.503204,193.999405 59.378128,194.000397 
	C59.880463,193.833481 60.757736,193.666367 61.819252,193.748535 
z"/>
<path fill="#ED4A49" opacity="1.000000" stroke="none" 
	d="
M62.999924,193.999084 
	C63.510521,194.300766 64.021194,194.603363 64.531868,194.905960 
	C64.350067,195.116135 64.168266,195.326294 63.986465,195.536469 
	C63.680557,195.213989 63.374641,194.891510 63.033524,194.284515 
	C62.998322,194.000000 63.000000,194.000000 62.999924,193.999084 
z"/>
<path fill="#ED4A49" opacity="1.000000" stroke="none" 
	d="
M59.000916,195.999084 
	C59.728859,196.044479 60.455883,196.090775 61.182911,196.137070 
	C61.159443,196.345367 61.135975,196.553650 61.112503,196.761932 
	C60.520687,196.666473 59.928875,196.571014 59.167992,196.238678 
	C58.998928,196.001785 59.000000,196.000000 59.000916,195.999084 
z"/>
<path fill="#ED4A49" opacity="1.000000" stroke="none" 
	d="
M72.277687,193.398865 
	C72.150810,193.559128 71.931396,193.582306 71.711990,193.605484 
	C71.869713,193.490921 72.027435,193.376358 72.277687,193.398865 
z"/>
<path fill="#FA7471" opacity="1.000000" stroke="none" 
	d="
M97.996597,122.597649 
	C96.490929,124.363701 94.189461,125.455170 93.608002,127.140182 
	C89.161598,140.025528 81.028084,149.868347 69.371483,156.636917 
	C66.119019,158.525513 62.058102,159.500595 58.265461,159.886536 
	C48.535568,160.876694 39.692459,157.610489 31.957275,152.067398 
	C28.954058,149.915268 27.289215,145.895477 25.373228,142.403229 
	C28.820574,143.053741 31.909388,144.027481 35.035496,145.347382 
	C37.048424,147.129227 39.024059,148.564926 40.999828,150.250458 
	C40.999962,150.500305 41.000610,151.000000 41.041985,151.320618 
	C41.722218,152.093750 42.361076,152.546265 43.468529,152.999146 
	C49.689938,152.999390 55.447094,153.117935 61.192257,152.908127 
	C62.483112,152.860992 63.732063,151.666367 65.000305,151.000000 
	C67.546051,149.620483 70.562187,148.718536 72.543953,146.766464 
	C77.321136,142.060913 81.748322,137.211029 85.431366,131.274002 
	C89.259918,125.102409 91.462318,118.950119 93.080673,112.151291 
	C94.035339,108.140640 95.959198,104.360695 97.721581,100.238876 
	C97.896500,103.154648 97.649437,106.314339 97.773087,109.459457 
	C97.819931,110.650818 98.721512,111.808571 99.616722,113.365837 
	C99.999931,114.499962 99.999908,115.249901 99.999893,115.999832 
	C99.676369,116.099869 99.414803,116.286667 98.814285,116.810394 
	C98.274940,117.707092 98.136505,118.353600 97.998062,119.000114 
	C97.997864,120.066071 97.997665,121.132027 97.996597,122.597649 
z"/>
<path fill="#F9706D" opacity="1.000000" stroke="none" 
	d="
M100.249878,115.999939 
	C99.999908,115.249901 99.999931,114.499962 99.999924,113.375084 
	C100.166588,113.000076 100.333275,113.000015 100.750038,113.000015 
	C101.000076,113.750046 101.000046,114.500015 100.999931,115.624954 
	C100.999847,115.999924 100.499870,116.000038 100.249878,115.999939 
z"/>
<path fill="#F9706D" opacity="1.000000" stroke="none" 
	d="
M98.243958,118.833153 
	C98.136505,118.353600 98.274940,117.707092 98.705933,117.029526 
	C98.828934,117.554382 98.659393,118.110283 98.243958,118.833153 
z"/>
<path fill="#FEA8A5" opacity="1.000000" stroke="none" 
	d="
M157.787003,94.980461 
	C155.550491,93.890732 153.010803,93.226234 151.988968,91.605042 
	C148.470963,86.023643 149.387421,80.114670 152.321747,74.583458 
	C154.130600,71.173775 158.372345,70.950417 161.210724,73.727280 
	C166.332001,78.737556 164.558121,91.167587 157.787003,94.980461 
z"/>
<path fill="#FA7878" opacity="1.000000" stroke="none" 
	d="
M41.000610,151.000000 
	C41.000610,151.000000 40.999962,150.500305 40.999947,149.850327 
	C41.000042,148.133362 41.000153,147.066376 41.000263,145.999390 
	C45.231285,146.332901 49.474522,147.032761 53.689735,146.892181 
	C57.549484,146.763458 61.378956,145.726852 65.610886,145.045441 
	C65.666962,146.742050 65.333923,148.483490 65.000595,150.612457 
	C63.732063,151.666367 62.483112,152.860992 61.192257,152.908127 
	C55.447094,153.117935 49.689938,152.999390 43.426914,152.678711 
	C42.278011,151.905243 41.639313,151.452621 41.000610,151.000000 
z"/>
<path fill="#FA7878" opacity="1.000000" stroke="none" 
	d="
M34.998199,145.001221 
	C31.909388,144.027481 28.820574,143.053741 25.367062,142.039078 
	C25.001297,140.610428 25.000227,139.222702 24.998665,137.418701 
	C24.998882,134.959579 24.999596,132.916718 25.001205,130.436096 
	C25.468010,130.138016 26.282255,130.183670 26.349052,130.431091 
	C28.177441,137.203705 33.271149,140.990967 38.548149,144.654266 
	C37.133068,145.000320 36.065636,145.000763 34.998199,145.001221 
z"/>
<path fill="#FA7876" opacity="1.000000" stroke="none" 
	d="
M35.035500,145.347382 
	C36.065636,145.000763 37.133068,145.000320 38.600784,144.999634 
	C39.556072,145.169220 40.111076,145.339050 40.833176,145.754135 
	C41.000153,147.066376 41.000042,148.133362 40.999813,149.600479 
	C39.024059,148.564926 37.048424,147.129227 35.035500,145.347382 
z"/>
<path fill="#FA7878" opacity="1.000000" stroke="none" 
	d="
M72.653030,141.034485 
	C71.576324,142.330124 70.153252,143.660843 68.364792,144.995483 
	C69.435150,143.689453 70.870911,142.379501 72.653030,141.034485 
z"/>
<path fill="#F55958" opacity="1.000000" stroke="none" 
	d="
M213.659729,150.034286 
	C213.226990,150.977234 212.453979,151.954468 211.340805,152.966156 
	C211.773575,152.023270 212.546524,151.045929 213.659729,150.034286 
z"/>
<path fill="#FA7876" opacity="1.000000" stroke="none" 
	d="
M41.041988,151.320618 
	C41.639313,151.452621 42.278011,151.905243 42.958321,152.678329 
	C42.361076,152.546265 41.722218,152.093750 41.041988,151.320618 
z"/>
</svg>