<svg version="1.1" id="Layer_1" xmlns="http://www.w3.org/2000/svg" xmlns:xlink="http://www.w3.org/1999/xlink" x="0px" y="0px"
	 width="100%" viewBox="0 0 832 672" enable-background="new 0 0 832 672" xml:space="preserve">
<path fill="#000000" opacity="1.000000" stroke="none" 
	d="
M304.683441,42.526466 
	C329.706726,41.082226 353.766937,45.693054 377.961792,48.998432 
	C392.910187,51.040611 407.735474,54.627636 422.894226,54.373207 
	C434.525330,54.177982 445.998016,51.628540 457.381592,49.404175 
	C470.772430,46.787598 484.385345,45.563534 497.685608,42.641533 
	C510.041351,39.927029 522.472412,40.628563 534.896484,40.648533 
	C565.774902,40.698162 588.598633,57.748260 597.945496,87.160080 
	C601.811157,99.324051 603.702942,111.860985 604.080505,124.444969 
	C604.814453,148.910980 605.130005,173.436386 603.124451,197.861282 
	C600.286377,232.426285 592.434753,265.848389 578.669922,297.780823 
	C578.274231,298.698700 577.976685,299.677643 577.459351,300.521393 
	C570.056335,312.595154 569.780701,325.817108 570.104492,339.501770 
	C570.726746,365.799622 569.213135,392.064667 567.563965,418.329956 
	C565.917542,444.553711 563.071289,470.660309 560.682190,496.803497 
	C559.129639,513.792480 555.526184,530.591553 552.916382,547.487244 
	C550.074829,565.883423 546.455566,584.133972 542.124146,602.223389 
	C540.005859,611.070129 538.165100,620.176392 532.981079,627.936523 
	C528.077637,635.276672 522.362976,635.656616 516.171143,629.213196 
	C509.614258,622.389771 505.293243,614.078491 501.375671,605.613892 
	C495.428925,592.764893 490.513092,579.494263 485.811584,566.136353 
	C474.804291,534.862366 467.224731,502.750854 461.627411,470.112000 
	C458.871460,454.041473 457.005341,437.886536 455.526093,421.661469 
	C454.265228,407.831726 439.934265,391.739349 425.361969,387.326843 
	C400.851807,379.905212 376.606354,391.941864 368.536499,416.151947 
	C366.474304,422.338715 366.242889,429.187531 365.563995,435.772736 
	C364.150787,449.480469 362.246185,463.114471 360.260986,476.748138 
	C354.795135,514.285950 347.360870,551.411499 337.159271,587.952637 
	C333.536896,600.927734 329.811493,613.908325 323.285034,625.849731 
	C321.725494,628.703125 319.679657,631.084595 317.020355,632.860046 
	C313.432281,635.255615 309.434509,635.292236 306.421265,632.379517 
	C302.521271,628.609619 298.731262,624.683899 296.662750,619.308350 
	C290.648926,603.679932 287.878296,587.293884 284.638519,570.991394 
	C279.292175,544.088440 277.229675,516.796875 274.544037,489.568756 
	C271.898285,462.745331 270.481476,435.872650 269.462921,408.936981 
	C268.536438,384.436096 268.007996,359.935028 269.949249,335.550537 
	C271.142578,320.561310 267.149109,307.128448 263.090240,293.235443 
	C254.796616,264.847443 247.328293,236.247330 242.557449,206.976959 
	C238.173218,180.078674 236.923264,153.038376 237.781967,125.900566 
	C238.272659,110.392944 240.973999,95.127708 246.960861,80.646843 
	C255.929214,58.954502 272.614502,47.314610 295.389923,43.702431 
	C298.339722,43.234592 301.310120,42.896732 304.683441,42.526466 
M575.250549,72.275757 
	C570.149597,65.873283 563.737183,61.333767 556.122131,58.308399 
	C541.673462,52.568077 526.589661,53.425438 511.722260,54.694473 
	C489.691345,56.574963 468.034698,61.330082 446.217224,64.858154 
	C437.386139,66.286209 428.590363,69.237206 419.563477,68.141251 
	C401.426636,65.939270 383.356354,63.188057 365.260559,60.649540 
	C344.189423,57.693638 323.143860,54.090027 301.744659,56.369678 
	C291.719330,57.437679 282.112457,60.031490 273.954315,66.433495 
	C260.854431,76.713509 256.181061,91.330643 253.329636,106.816360 
	C250.174316,123.952637 250.732315,141.257782 251.261444,158.556702 
	C251.867249,178.362640 254.162628,197.981430 257.899445,217.422119 
	C264.094208,249.650101 273.371155,281.076233 282.939178,312.420380 
	C283.671875,314.820648 284.176971,317.180542 284.001190,319.762054 
	C283.345947,329.385132 282.583710,339.015106 282.393188,348.653046 
	C281.731293,382.134644 282.590973,415.598602 284.414459,449.029755 
	C285.120300,461.969879 286.307404,474.891815 287.594330,487.790222 
	C289.490448,506.794342 291.480774,525.784790 294.205170,544.703857 
	C297.097046,564.785828 300.085052,584.833618 305.716827,604.354126 
	C306.936615,608.581970 307.594452,613.466003 311.638641,616.502625 
	C313.632843,615.432922 314.123718,613.766418 314.773071,612.290649 
	C320.492706,599.292236 324.110291,585.596069 327.676819,571.924622 
	C334.602936,545.374878 339.991394,518.482239 344.472290,491.416718 
	C348.297760,468.310059 351.407501,445.102203 353.703094,421.788574 
	C354.993225,408.686035 360.191040,397.074036 369.691071,388.221222 
	C386.773621,372.302429 407.171448,367.753204 429.472504,374.645752 
	C451.122040,381.336914 464.113525,396.625977 468.371094,418.660675 
	C470.726318,430.850159 471.124786,443.404358 472.839111,455.733826 
	C476.276611,480.456085 481.560089,504.816772 488.320709,528.836792 
	C496.179077,556.757202 505.172760,584.271667 519.050232,609.917664 
	C520.107422,611.871277 520.792114,614.289673 523.893250,614.992859 
	C526.189087,610.536987 527.508423,605.769775 528.676270,600.949524 
	C533.453186,581.233215 537.229248,561.317932 540.440063,541.293823 
	C543.753174,520.632080 546.392456,499.881348 548.803894,479.094543 
	C550.547241,464.067017 551.390625,448.963531 552.978210,433.935516 
	C555.183472,413.060120 555.729919,392.105316 556.530823,371.175537 
	C557.199402,353.705139 556.708984,336.188293 556.613342,318.692688 
	C556.595581,315.441437 557.154358,312.491272 558.583435,309.555267 
	C576.775513,272.179321 587.803955,232.917297 589.860535,191.250275 
	C591.150024,165.125168 592.130310,138.995132 589.600952,112.913628 
	C588.206604,98.535255 584.490540,84.751343 575.250549,72.275757 
z"/>
<path fill="#000000" opacity="1.000000" stroke="none" 
	d="
M420.034729,427.185974 
	C420.349823,430.599396 420.714691,433.571045 420.895355,436.553864 
	C421.065338,439.359680 419.674591,440.930573 416.801239,441.068787 
	C416.469025,441.084747 416.137268,441.111694 415.805756,441.139282 
	C401.053040,442.366150 398.637848,439.776306 400.831665,425.012848 
	C400.974030,424.054962 401.113556,422.667603 401.745148,422.280151 
	C406.333527,419.465668 411.420624,420.732483 416.302246,421.028076 
	C419.564117,421.225586 419.476196,424.364471 420.034729,427.185974 
z"/>
<path fill="#000000" opacity="1.000000" stroke="none" 
	d="
M405.513367,462.224243 
	C409.604645,460.795593 413.527802,459.814697 415.666321,464.380829 
	C417.055420,467.346741 413.505646,476.647278 410.907806,477.278992 
	C408.424896,477.882843 405.773712,477.327637 404.209534,475.067047 
	C402.078674,471.987610 400.552612,468.590881 402.708710,464.858765 
	C403.264526,463.896698 404.353027,463.242401 405.513367,462.224243 
z"/>
</svg>